<svg xmlns="http://www.w3.org/2000/svg" fill="none" viewBox="0 0 64 56">
  <g clip-path="url(#a)">
    <path fill="url(#b)" d="M50.278 36.769s3.808.686 6.848-1.173c4.17-2.551 2.768-10.557 2.768-10.557l1.02-.734s1.674 6.973-.146 10.558c-3.989 7.86-10.636 6.305-10.636 6.305l.146-4.4Z"/>
    <path fill="#3DBAFE" d="M41.48 4.89s4.388-3.255 7.771-4.106C53.914-.39 62.073-.096 62.559.686c.485.783-.58 7.312-2.429 10.559-3.788 6.646-10.685 9.287-10.685 9.287L41.48 4.89Z"/>
    <path fill="#FFA06C" d="M45.074 6.357s.777 1.465 2.04 3.91c1.207 2.335 2.914 5.866 2.914 5.866s3.528-2.025 5.634-4.302c3.885-4.204 3.983-8.994 3.983-8.994s-4.177-.587-8.354.097c-3.405.559-6.897 2.444-6.897 2.444l.68.979Z"/>
    <path fill="#79D3D7" d="m44.615 5.264.004-.003-.004.003Zm.004-.003c.706-.36 2.99-1.47 5.456-2.076-2.464.606-4.748 1.714-5.456 2.076Zm5.46-2.077.015-.004-.015.004Zm.02-.005.013-.002a.038.038 0 0 0-.012.002Zm.021-.005.011-.002a.035.035 0 0 0-.011.002Zm.02-.004c.003-.002.007-.002.01-.003-.004.001-.007.001-.01.003Zm.018-.005c.004-.001.008-.001.011-.003a.037.037 0 0 1-.01.003Zm.02-.005.009-.001h-.01Zm.02-.005.006-.001-.007.001Zm.13-.03Zm.017-.004h.002-.002Zm.778-.158h.002-.002Zm.02-.003Zm.017-.004h.003-.003Zm.018-.002.004-.002-.004.002Zm.018-.004.007-.001-.007.001Zm.019-.002c.002-.002.004-.002.006-.002-.002 0-.004 0-.006.002Zm.019-.004.008-.001-.008.001Zm.019-.004h.008-.008Zm.019-.002.019-.004-.02.004Z"/>
    <path fill="#FFB892" d="M46.613 8.452c-.646-.825-1.722-2.432-2.166-3.101.037-.02.093-.05.168-.087l.004-.003c.708-.362 2.992-1.47 5.456-2.076l.004-.001.015-.004h.006a.04.04 0 0 1 .011-.003.024.024 0 0 1 .009-.003.036.036 0 0 1 .011-.002l.008-.002.01-.003.01-.002a.035.035 0 0 0 .01-.003l.009-.002.009-.001.01-.004.007-.001.123-.03c.006 0 .012-.002.017-.003h.003c.258-.059.517-.112.776-.158h.001l.018-.003.017-.004h.004l.015-.002.004-.002c.005 0 .01 0 .014-.002l.006-.001.013-.001c.002-.002.004-.002.006-.002.005 0 .008 0 .013-.002l.007-.001.012-.003h.008l.01-.002.02-.004c1.539-.252 3.077-.331 4.407-.331 2.28 0 3.946.234 3.946.234 0 .01-.008.33-.084.87-.484-.114-1.073-.161-1.728-.161-1.584 0-3.548.275-5.322.538-3.52.521-5.845 3.683-5.897 4.368Z"/>
    <path fill="#3DBAFE" d="M21.195 4.89s-4.387-3.255-7.77-4.106C8.762-.39.603-.096.117.686c-.485.783.579 7.312 2.429 10.559 3.788 6.646 10.684 9.287 10.684 9.287L21.195 4.89Z"/>
    <path fill="#FFA06C" d="M17.602 6.357s-.777 1.465-2.04 3.91c-1.207 2.335-2.914 5.866-2.914 5.866S9.12 14.107 7.014 11.83C3.129 7.627 3.03 2.837 3.03 2.837s4.177-.587 8.354.097c3.404.559 6.897 2.444 6.897 2.444l-.68.979Z"/>
    <path fill="#79D3D7" d="M18.229 5.35c-.37-.195-2.638-1.36-5.196-2.053 2.561.694 4.83 1.862 5.196 2.054Zm-5.197-2.054-.097-.025.097.025Zm-.102-.026-.014-.004.014.004Zm-.021-.006Zm-.021-.006-.01-.002.01.002Zm-.022-.005-.005-.001h.005Zm-.02-.005-.003-.001.004.001Zm-.018-.005-.004-.001.004.001Zm-.02-.006h-.001.001Zm-1.293-.28h-.001.001Zm-.018-.003-.002-.002.002.002Zm-.018-.004-.004-.001.004.001Zm-.019-.004h-.005.005Zm-.018-.002-.007-.001.007.001Zm-.02-.004h-.007a.016.016 0 0 0 .008 0Zm-.018-.002-.02-.004.02.004Z"/>
    <path fill="#FFB892" d="M16.063 8.452c-.052-.685-2.376-3.847-5.897-4.368-1.775-.263-3.739-.538-5.323-.538-.654 0-1.243.047-1.728.16a8.141 8.141 0 0 1-.084-.87s1.667-.233 3.947-.233c1.33 0 2.868.08 4.407.331l.019.004.011.001.008.001.012.003.007.001.013.002h.005l.014.003.005.001.016.002.002.002a.05.05 0 0 1 .017.002h.001c.433.076.865.171 1.292.281h.001l.016.005.004.001.014.004.005.001.014.004h.005l.012.004.01.002.009.003a.04.04 0 0 1 .012.003c.002 0 .004 0 .006.002l.015.004h.005c.032.01.064.018.096.026l.002.001c2.558.693 4.825 1.858 5.196 2.054-.445.67-1.52 2.276-2.166 3.101"/>
    <path fill="url(#c)" d="M52.89 51.256c-.275-.84-.27-5.18-.21-8.997h.044s1.154-15.524-3.011-27.471C45.826 3.644 39.831.38 30.383.612c-9.117.225-16.14 6.278-17.65 13.822-2.263 11.303-1.098 28.41-1.098 28.41h.025c.106 3.705.155 7.756-.097 8.568-.486 1.565-1.91 1.642-1.424 2.393.524.812 1.806.014 1.806.014s-.371 1.439 1.172 1.7c1.519.255 1.554-1.272 1.554-1.272s1.393.753 1.883.086c.598-.816-.329-1.063-.717-1.845-.389-.783-.155-4.655.412-6.721.397-1.444 3.194-2.941 5.037-3.356 6.987-1.571 13.783-1.607 21.101-.391 1.717.286 5.235 1.92 5.738 3.656.596 2.058.883 5.927.505 6.714-.377.788-1.3 1.049-.692 1.856.5.66 1.882-.113 1.882-.113s.056 1.528 1.572 1.25c1.539-.282 1.148-1.716 1.148-1.716s1.293.781 1.806-.038c.475-.758-.95-.816-1.457-2.373Z"/>
    <path fill="#1855CA" d="M27.714 13.029c0 3.482-2.805 6.306-6.265 6.306-3.46 0-6.266-2.824-6.266-6.306s2.805-6.306 6.266-6.306c3.46 0 6.265 2.824 6.265 6.306Z"/>
    <path fill="#fff" d="M27.082 13.029c0 3.131-2.522 5.67-5.633 5.67-3.112 0-5.634-2.539-5.634-5.67 0-3.13 2.522-5.67 5.634-5.67 3.111 0 5.633 2.54 5.633 5.67Z"/>
    <path fill="#50C05E" d="M25.528 13.029c0 2.268-1.826 4.106-4.08 4.106-2.253 0-4.08-1.839-4.08-4.106s1.827-4.105 4.08-4.105c2.254 0 4.08 1.838 4.08 4.105Z"/>
    <path fill="#B1FB9F" d="M18.834 13.12c.292-3.401 4.12-3.3 4.306-3.26-.53-.523-1.457-.652-2.396-.554-1.642.171-3.108 1.712-3.108 3.52 0 1.591 1.02 3.257 2.396 3.551-.608-.6-1.28-2.296-1.198-3.258Z"/>
    <path fill="#231F20" d="M22.978 12.94c0 .89-.717 1.612-1.602 1.612a1.607 1.607 0 0 1-1.603-1.613c0-.89.718-1.612 1.603-1.612s1.602.722 1.602 1.612Z"/>
    <path fill="#fff" d="M21.521 12.401a.715.715 0 0 1-.712.718.715.715 0 0 1-.712-.718c0-.395.319-.716.712-.716.393 0 .712.32.712.716Zm1.118-.13a.438.438 0 1 1-.874 0 .438.438 0 1 1 .873 0Z"/>
    <path fill="#1855CA" d="M47.17 12.558c0 3.483-2.805 6.306-6.265 6.306-3.46 0-6.265-2.823-6.265-6.306 0-3.482 2.805-6.305 6.265-6.305 3.46 0 6.265 2.823 6.265 6.305Z"/>
    <path fill="#fff" d="M46.539 12.558c0 3.132-2.523 5.67-5.634 5.67s-5.634-2.538-5.634-5.67c0-3.131 2.523-5.67 5.634-5.67s5.634 2.539 5.634 5.67Z"/>
    <path fill="#50C05E" d="M44.985 12.558c0 2.268-1.827 4.107-4.08 4.107s-4.08-1.839-4.08-4.107c0-2.268 1.827-4.106 4.08-4.106s4.08 1.838 4.08 4.106Z"/>
    <path fill="#B1FB9F" d="M38.29 12.648c.293-3.401 4.12-3.299 4.307-3.259-.53-.522-1.457-.651-2.396-.553-1.643.17-3.109 1.711-3.109 3.518 0 1.593 1.021 3.259 2.397 3.553-.608-.6-1.281-2.297-1.199-3.26Z"/>
    <path fill="#231F20" d="M42.435 12.469c0 .89-.718 1.613-1.603 1.613a1.608 1.608 0 0 1-1.603-1.613c0-.891.718-1.613 1.603-1.613s1.603.722 1.603 1.613Z"/>
    <path fill="#fff" d="M40.978 11.931a.714.714 0 0 1-.712.717.714.714 0 0 1-.713-.717c0-.396.32-.717.713-.717.393 0 .712.321.712.717Zm1.117-.131a.44.44 0 0 1-.437.441.44.44 0 0 1-.437-.44.44.44 0 0 1 .437-.44.44.44 0 0 1 .437.44Z"/>
    <path fill="#1855CA" d="M19.657 21.118s5.65 2.036 11.867 1.906c6.217-.13 13.404-2.835 13.404-2.835s-5.575 4.259-13.55 4.057c-7.722-.195-11.72-3.128-11.72-3.128Z"/>
    <path fill="#fff" d="M23.692 22.213s-.452 1.08-.228 2.461c.238 1.472.728 2.053.923 2.053.194 0 .199-1.066.38-2.064.208-1.158.836-2.076.836-2.076l-1.91-.373Zm16.938-.673s.494 1.06.324 2.45c-.181 1.478-.649 2.079-.843 2.087-.194.007-.24-1.058-.459-2.048-.254-1.148-.916-2.042-.916-2.042l1.895-.448Z"/>
    <path fill="url(#d)" d="M12.217 24.665c-1.393.288-1.612 5.129.544 7.76 2.428 2.966 6.948 4.323 9.448 4.434 1.43.063 2.014-.1 2.014-.556 0-.417-.803-.409-.803-.409s.77-.177.705-.861c-.049-.524-1.478-.5-1.478-.5s.604-.023.475-.544c-.114-.456-.933-.361-1.91-.52-1.004-.164-3.53-1.207-5.084-5.41-1.07-2.897-1.587-3.878-3.911-3.394Z"/>
    <path fill="#FFA06C" d="M38.607 27.666s-1.334-3.183-4.08-2.759c-2.105.326-6.174 5.308-2.627 8.782 3.547 3.474 7.158 3.138 8.892 1.004 2.244-2.763 1.92-4.742.916-5.841-1.005-1.098-3.1-1.186-3.1-1.186Z"/>
    <path fill="#fff" d="M35.531 24.871c-1.72-.014-2.825.29-3.725 1.607-.9 1.315-.945 2.18-.945 2.18s.45.437 1.291.44c.842.002 1.472-1.004 1.472-1.004s.302.623 1.09.672c.786.05 1.673-.812 1.673-.812s.949.898 1.601.96c1.621.155 1.851-.985 1.851-.985s-1.578-3.035-4.308-3.058Z"/>
    <path fill="#1855CA" d="m33.178 34.55-1.366.412.555.27-.298.545.73-.15.08.564.757-1.306-.458-.335Z"/>
    <path fill="url(#e)" d="M51.871 25.986c1.763 1.584-.577 5.347-3.603 6.883-3.409 1.73-8.09 1.142-10.422.23-1.335-.522-1.803-.907-1.62-1.326.166-.38.897-.048.897-.048s-.633-.475-.3-1.075c.254-.46 1.553.142 1.553.142s-.545-.265-.218-.69c.287-.37.999.046 1.958.297.984.257 3.713.326 6.817-2.891 2.14-2.217 3.123-3.154 4.938-1.522Z"/>
    <path fill="#1855CA" d="M39.538 27.374s.874-.782 2.185-1.466c1.311-.685 1.991-.685 1.991-.685l.146.93s-1.166.146-1.943.489c-.777.341-2.078 1.287-2.078 1.287l-.301-.555Z"/>
    <path fill="#FFA06C" d="M60.422 25.175s-2.33 1.971-3.109.733c-1.505-2.395 1.36-6.892 1.36-6.892s3.448 1.466 4.517 2.688c.616.705 1.311 2.542.291 3.128-1.02.588-3.06.343-3.06.343Z"/>
    <path fill="#FFB892" d="M58.361 25.65a.766.766 0 0 1-.66-.341c-.277-.395-.29-1.478-.048-2.407.243-.929 1.093-3.08 1.093-3.08l.243.428s-.323 1.796-.546 2.884c-.287 1.393.541 1.405.57 1.405l.389.722s-.528.39-1.041.39"/>
    <path fill="#1855CA" d="M30.666 19.195c.259.521 3.043.587 3.173 0 .13-.586-1.23-2.737-1.748-2.672-.518.066-1.684 2.151-1.425 2.672Z"/>
  </g>
  <defs>
    <linearGradient id="b" x1="35.581" x2="55.874" y1="21" y2="41.293" gradientUnits="userSpaceOnUse">
      <stop stop-color="#799BDD"/>
      <stop offset="1" stop-color="#1855CA"/>
    </linearGradient>
    <linearGradient id="c" x1="-5" x2="32.24" y1="18.307" y2="55.547" gradientUnits="userSpaceOnUse">
      <stop stop-color="#88D2FB"/>
      <stop offset="1" stop-color="#2A9BD8"/>
    </linearGradient>
    <linearGradient id="d" x1="3.5" x2="17.689" y1="22.683" y2="36.872" gradientUnits="userSpaceOnUse">
      <stop stop-color="#799BDD"/>
      <stop offset="1" stop-color="#1855CA"/>
    </linearGradient>
    <linearGradient id="e" x1="34.5" x2="44.333" y1="24.146" y2="33.98" gradientUnits="userSpaceOnUse">
      <stop stop-color="#799BDD"/>
      <stop offset="1" stop-color="#1855CA"/>
    </linearGradient>
    <clipPath id="a">
      <path fill="#fff" d="M0 0h64v55.547H0z"/>
    </clipPath>
  </defs>
</svg>
