<svg xmlns="http://www.w3.org/2000/svg" fill="none" viewBox="0 0 64 65">
  <path fill="url(#a)" d="M45.622 37.6s-1.03 7.268-1.682 12.517c-.651 5.248-1.627 9.268-1.312 9.778.316.51 3.736 2.83 3.029 3.763-.708.934-5.861-.335-6.39-1.458-.528-1.124.721-7.818.379-10.383-.342-2.565-2.724-11.987-2.724-11.987s.05-4.008 2.108-3.83c2.057.18 6.592 1.6 6.592 1.6Z"/>
  <path fill="url(#b)" d="M17.881 37.575s.822 7.371 1.542 12.612c.72 5.24 1.746 9.247 1.439 9.76-.308.514-3.699 2.877-2.98 3.801.719.926 5.857-.41 6.37-1.54.514-1.13-.822-7.809-.513-10.377.308-2.568 2.568-12.021 2.568-12.021s-.102-4.008-2.158-3.802c-2.054.206-6.268 1.567-6.268 1.567Z"/>
  <path fill="url(#c)" d="M14.583 8.449s-1.736-2.154-3.935-3.317C8.45 3.969 6.741 3.15 6.741 3.15L6.04 4.358s1.23.244 2.759 1.928c1.53 1.682 2.828 4.367 2.828 4.367l2.956-2.204Z"/>
  <path fill="url(#d)" d="M4.067 4.724a2.722 2.722 0 1 0 4.982-2.2 2.724 2.724 0 0 0-4.982 2.2Z"/>
  <path fill="#fff" d="M8.132 3.578a1.952 1.952 0 0 0-3.467-.2 1.952 1.952 0 0 1 3.734-.855 1.946 1.946 0 0 1-.103 1.775 1.925 1.925 0 0 0-.164-.72Z"/>
  <path fill="url(#e)" d="M45.839 8.46s1.47-2.344 3.517-3.758c2.046-1.414 3.647-2.427 3.647-2.427l.839 1.117s-1.193.386-2.514 2.237c-1.32 1.853-2.292 4.671-2.292 4.671l-3.197-1.84Z"/>
  <path fill="url(#f)" d="M55.845 3.522a2.723 2.723 0 1 1-5.207-1.598 2.723 2.723 0 0 1 5.207 1.598Z"/>
  <path fill="#fff" d="M51.672 2.863a1.95 1.95 0 0 1 3.419-.606 1.95 1.95 0 1 0-3.497 1.34c-.02-.241.002-.489.078-.734Z"/>
  <path fill="url(#g)" d="M26.49 9.013c-2.445-1.416-5.663-2.857-8.616-2.86C14.746 6.15 8.637 7.588 6.01 9.47c1.56 1.148 5.594 1.609 7.41 2.436-3.22.754-9.657 3.974-11.777 10.435 1.92.307 4.084-.985 6.071-1.006C3.957 23.399.825 30.785 0 34.878c3.079-2.42 5.915-3.584 10.339-3.038-2.862 1.353-4.193 3.811-4.521 8.562 2.473-.795 4.578-2.834 7.192-3.22-4.415 3.892-3.774 7.234-3.34 11.67 2.039-2.08 5.982-3.572 8.147-4.817-.216 2.67.285 5.293 1.686 6.682.996-1.812 2.49-4.693 4.11-5.917.289 3.343.863 6.346 3.371 8.48 1.134-2.507 4.316-8.425 4.727-8.357 0 0 7.261 3.973 9.178 7.193.084-2.438.113-6.84-.822-8.906 2.15-.101 3.555 1.079 5.413 2.056 1.672.88 3.356 2.672 4.52 4.179.163-3.026.112-6.943-1.712-9.18 3.552-.037 6.301.891 9.384 2.877-1.164-3.904-3.35-6.882-6.508-7.397 3.988-.703 7.125-.137 11.166 2.603-.298-3.843-4.52-8.494-9.676-8.938 1.734-.975 5.84-1.337 9.06.032-1.919-3.287-5.48-4.863-8.433-5.015 3.414-.842 7.063-.328 10.419.906-1.232-8.494-11.097-8.7-14.725-7.894 2.275-1.291 5.49-1.712 8.092-1.644 1.78.048 2.455.222 4.441.907-4.33-5.945-11.37-7.467-19.531-5.418 1.451-.807 3.104-1.457 4.633-2.117-4.145-2.398-8.05-.686-9.818.518-.071.078-.067.083.012.015 1.016-1.67 1.894-2.999 3.84-4.56-8.521-1.111-14.153 3.873-14.153 3.873"/>
  <path fill="url(#h)" d="M24.762 8.68c-2.603-1.098-5.978-2.124-8.907-1.757-3.104.39-8.985 2.584-11.353 4.78 1.693.944 5.751.894 7.658 1.488-3.1 1.151-9.084 5.153-10.376 11.829 1.945.064 3.929-1.489 5.897-1.76-3.469 2.519-5.65 10.24-5.955 14.404 2.75-2.788 5.419-4.298 9.877-4.31-2.67 1.701-3.682 4.307-3.412 9.061 2.354-1.099 4.187-3.385 6.732-4.097-3.892 4.415-2.836 7.65-1.85 11.997 1.763-2.32 5.487-4.295 7.478-5.802.12 2.676.948 5.216 2.512 6.418.76-1.923 1.881-4.969 3.334-6.386.707 3.28 1.654 6.188 4.41 7.99.81-2.63 3.224-8.9 3.64-8.884 0 0 7.703 3.032 10.01 5.985-.225-2.43-.748-6.8-1.934-8.733 2.12-.369 3.661.624 5.627 1.361 1.77.663 3.665 2.229 5.01 3.578-.218-3.023-.76-6.9-2.85-8.892 3.519-.483 6.363.094 9.67 1.677-1.645-3.727-4.187-6.407-7.385-6.523 3.868-1.197 7.052-1.03 11.405 1.181-.778-3.775-5.551-7.859-10.721-7.65 1.596-1.187 5.625-2.062 8.991-1.106-2.314-3.021-6.046-4.138-8.995-3.918 3.281-1.264 6.967-1.211 10.45-.409-2.288-8.273-12.1-7.238-15.597-5.984 2.094-1.566 5.23-2.388 7.82-2.645 1.771-.177 2.464-.089 4.52.34C55.426 6.56 48.25 5.934 40.412 8.99c1.339-.982 2.897-1.835 4.332-2.681-4.414-1.86-8.072.33-9.675 1.745-.062.087-.058.091.013.014.797-1.785 1.502-3.213 3.237-5.007-8.593-.032-13.556 5.619-13.556 5.619Z"/>
  <path fill="url(#i)" d="M30.557 8.71c-1.829-1.754-4.327-3.695-6.898-4.326-2.724-.67-8.354-.717-11.043.364 1.117 1.334 4.532 2.593 5.939 3.7-2.965-.027-9.261 1.406-12.483 6.585 1.608.676 3.768.012 5.504.415-3.713.998-8.015 6.767-9.605 10.158 3.198-1.454 5.916-1.863 9.655-.445-2.782.57-4.466 2.427-5.762 6.497 2.323-.167 4.592-1.494 6.952-1.273-4.675 2.45-4.827 5.497-5.395 9.455 2.22-1.377 5.972-1.84 8.124-2.463-.758 2.28-.878 4.673.048 6.18 1.252-1.366 3.168-3.559 4.839-4.28-.46 2.975-.599 5.714 1.132 8.107 1.522-1.943 5.554-6.422 5.897-6.274 0 0 5.48 5.006 6.467 8.22.591-2.107 1.553-5.935 1.18-7.934 1.894.37 2.866 1.695 4.277 2.943 1.27 1.123 2.356 3.041 3.05 4.603.786-2.602 1.574-6.025.461-8.362 3.103.722 5.301 2.117 7.564 4.504-.183-3.65-1.454-6.71-4.095-7.831 3.623.237 6.237 1.398 9.174 4.645.558-3.412-2.13-8.363-6.528-9.846 1.719-.482 5.373.077 7.886 1.957-.97-3.274-3.739-5.405-6.279-6.166 3.153-.007 6.223 1.219 8.885 3.007.735-7.663-7.816-9.942-11.148-10.012 2.257-.64 5.147-.323 7.399.29 1.54.42 2.092.716 3.677 1.735-2.508-6.101-8.318-8.926-15.864-8.877 1.436-.394 3.014-.61 4.488-.858-3.1-2.972-6.868-2.312-8.665-1.639-.08.053-.077.058.007.016 1.24-1.24 2.289-2.211 4.317-3.156-7.19-2.783-13.157.361-13.157.361"/>
  <path fill="url(#j)" d="M57.476 24.186s.991 5.184-1.003 8.136c-2.522 3.734-3.313 3.507-4.375 3.894-1.062.388-2.61-1.454-3.082-.954-.474.502 1.327 2.142 1.327 2.142s-3.868 2.286-3.596 2.734c.273.447 2.48-.51 2.48-.51s-2.677 2.387-2.217 2.851c.49.492 3.057-1.748 3.057-1.748s-1.28 1.842-.939 2.093c.532.389 3.184-3.624 3.937-4.555 1.699-2.099 3.878-3.207 5.193-5.729 2.724-5.22 1.695-8.112 1.695-8.112l-2.477-.242Z"/>
  <path fill="#1855CA" d="M24.29 20.39a3.35 3.35 0 0 1-3.357 3.344 3.35 3.35 0 0 1-3.355-3.345 3.35 3.35 0 0 1 3.355-3.345 3.351 3.351 0 0 1 3.357 3.346Z"/>
  <path fill="#fff" d="M23.697 20.401a2.809 2.809 0 1 1-5.618-.002 2.809 2.809 0 0 1 5.618.002Z"/>
  <path fill="url(#k)" d="M22.532 20.401a1.644 1.644 0 1 1-3.288 0 1.644 1.644 0 0 1 3.288 0Z"/>
  <path fill="#fff" d="M21.093 20.036a.662.662 0 1 1-1.323 0 .662.662 0 0 1 1.323 0Z"/>
  <path fill="#1855CA" d="M43.742 20.218a3.35 3.35 0 0 1-3.355 3.345 3.351 3.351 0 0 1-3.357-3.345 3.35 3.35 0 0 1 3.357-3.345 3.35 3.35 0 0 1 3.355 3.345Z"/>
  <path fill="#fff" d="M43.149 20.23a2.808 2.808 0 1 1-5.617.001 2.808 2.808 0 0 1 5.617-.002Z"/>
  <path fill="url(#l)" d="M41.984 20.23a1.644 1.644 0 1 1-3.287 0 1.644 1.644 0 0 1 3.287 0Z"/>
  <path fill="#fff" d="M40.546 19.864a.662.662 0 1 1-1.324.002.662.662 0 0 1 1.324-.002Z"/>
  <path fill="#FF620D" d="M14.968 15.592c.387.16.918.271 1.245.495-.47.336-.797.828-1.074 1.326.563-.035.919-.616 1.468-.702-.289.528-.431.716-.557 1.344.698-.45 1.054-.713 1.765-1.208.307.197.47.3.68.4.046-.318.246-.593.337-.89.01-.032.523.783.951.747-.055-.233.151-.848.239-1.04.296.338.718.594 1.128.739.082-.376.11-.6.218-.966.367.293.554.331 1.037.48-.042-.33-.105-.482-.036-.789.347.376.96.431 1.44.266-.357-.082-.575-.522-.74-.916.575-.102.892-.149 1.366-.473-.688-.25-1.046-.383-1.765-.297.144-.181.228-.5.282-.831-.743.099-.762.17-1.405.522-.042-.394-.244-.506-.179-.839-.534.158-.78.624-1.036 1.036-.053-.383-.352-.524-.454-.917-.582.128-.643 1.302-.643 1.302-.061.018-.87-.741-1.405-.713.063.422.222.83.284 1.237-.293-.1-1.453-.88-1.507-.846-.052.03.17 1.066.118 1.318 0 0-1.193-.055-1.757.215m22.584-2.136c.264.326.678.676.859 1.029-.575.071-1.095.347-1.576.654.513.237 1.101-.106 1.626.08-.507.329-.72.427-1.13.918.827-.062 1.266-.125 2.126-.221.177.319.272.487.408.675.192-.259.499-.405.72-.623.024-.023.088.939.481 1.11.063-.231.538-.674.706-.8.1.438.347.864.64 1.187.25-.291.383-.475.65-.747.184.434.33.556.684.917.12-.311.138-.474.344-.71.126.495.639.836 1.139.918-.275-.242-.255-.732-.215-1.157.556.184.856.294 1.428.235-.486-.549-.738-.836-1.41-1.103.212-.09.438-.33.643-.596-.699-.267-.752-.213-1.484-.21.15-.366.026-.56.241-.824-.543-.115-.982.18-1.404.418.138-.36-.059-.628.038-1.021-.574-.165-1.185.838-1.185.838-.063-.013-.412-1.066-.897-1.296-.145.401-.2.834-.34 1.223-.209-.227-.857-1.464-.922-1.462-.058.003-.356 1.018-.523 1.216 0 0-1.023-.616-1.647-.648ZM31.2 30.908c-4.036 0-6.492-1.603-6.597-1.673a.41.41 0 1 1 .454-.685c.024.017 2.498 1.618 6.463 1.532 5.234-.115 6.968-1.864 6.984-1.882a.414.414 0 0 1 .581-.015.41.41 0 0 1 .02.577c-.076.082-1.934 2.018-7.567 2.142-.114.003-.226.004-.337.004"/>
  <path fill="url(#m)" d="M7.11 24.254s-.99 5.186 1.003 8.136c2.522 3.734 3.313 3.508 4.375 3.895 1.062.387 2.61-1.454 3.083-.954.473.501-1.327 2.141-1.327 2.141s3.867 2.286 3.595 2.734c-.273.447-2.48-.51-2.48-.51s2.678 2.387 2.217 2.851c-.49.493-3.057-1.747-3.057-1.747s1.28 1.841.939 2.092c-.532.389-3.184-3.623-3.937-4.554-1.699-2.1-3.877-3.207-5.193-5.73-2.724-5.22-1.695-8.111-1.695-8.111l2.477-.243Z"/>
  <defs>
    <linearGradient id="a" x1="16.5" x2="41.337" y1="39.145" y2="63.982" gradientUnits="userSpaceOnUse">
      <stop stop-color="#799BDD"/>
      <stop offset="1" stop-color="#1855CA"/>
    </linearGradient>
    <linearGradient id="b" x1=".5" x2="22.045" y1="42.514" y2="64.058" gradientUnits="userSpaceOnUse">
      <stop stop-color="#799BDD"/>
      <stop offset="1" stop-color="#1855CA"/>
    </linearGradient>
    <linearGradient id="c" x1=".658" x2="10.312" y1="1" y2="10.653" gradientUnits="userSpaceOnUse">
      <stop stop-color="#799BDD"/>
      <stop offset="1" stop-color="#0054F4"/>
    </linearGradient>
    <linearGradient id="d" x1=".21" x2="6.558" y1="0" y2="6.348" gradientUnits="userSpaceOnUse">
      <stop stop-color="#FFC7A8"/>
      <stop offset="1" stop-color="#FF8F52"/>
    </linearGradient>
    <linearGradient id="e" x1="43.5" x2="49.84" y1="3.96" y2="10.3" gradientUnits="userSpaceOnUse">
      <stop stop-color="#799BDD"/>
      <stop offset="1" stop-color="#0054F4"/>
    </linearGradient>
    <linearGradient id="f" x1="48.5" x2="53.241" y1=".706" y2="5.447" gradientUnits="userSpaceOnUse">
      <stop stop-color="#FFC5A5"/>
      <stop offset="1" stop-color="#FF9B64"/>
    </linearGradient>
    <linearGradient id="g" x1="-6" x2="31.85" y1="15.43" y2="53.28" gradientUnits="userSpaceOnUse">
      <stop stop-color="#FF6B1B"/>
      <stop offset="1" stop-color="#D04A00"/>
    </linearGradient>
    <linearGradient id="h" x1="32.863" x2="32.863" y1="3.061" y2="52.535" gradientUnits="userSpaceOnUse">
      <stop stop-color="#FE8645"/>
      <stop offset="1" stop-color="#FF6612"/>
    </linearGradient>
    <linearGradient id="i" x1="-6" x2="30.759" y1="12.57" y2="49.329" gradientUnits="userSpaceOnUse">
      <stop stop-color="#FFB58C"/>
      <stop offset="1" stop-color="#FE9054"/>
    </linearGradient>
    <linearGradient id="j" x1="39.088" x2="53.439" y1="28.5" y2="42.85" gradientUnits="userSpaceOnUse">
      <stop stop-color="#799BDD"/>
      <stop offset="1" stop-color="#1855CA"/>
    </linearGradient>
    <linearGradient id="k" x1="20.888" x2="20.888" y1="18.756" y2="22.045" gradientUnits="userSpaceOnUse">
      <stop stop-color="#799BDD"/>
      <stop offset="1" stop-color="#1855CA"/>
    </linearGradient>
    <linearGradient id="l" x1="40.341" x2="40.341" y1="18.585" y2="21.873" gradientUnits="userSpaceOnUse">
      <stop stop-color="#799BDD"/>
      <stop offset="1" stop-color="#1855CA"/>
    </linearGradient>
    <linearGradient id="m" x1="-4.771" x2="11.148" y1="27" y2="42.919" gradientUnits="userSpaceOnUse">
      <stop stop-color="#799BDD"/>
      <stop offset="1" stop-color="#1855CA"/>
    </linearGradient>
  </defs>
</svg>
