<?xml version="1.0" encoding="utf-8"?>
<!-- Generator: Adobe Illustrator 25.4.1, SVG Export Plug-In . SVG Version: 6.00 Build 0)  -->
<svg version="1.1" id="bg" xmlns="http://www.w3.org/2000/svg" xmlns:xlink="http://www.w3.org/1999/xlink" x="0px" y="0px"
	 viewBox="0 0 496.6 226.2" style="enable-background:new 0 0 496.6 226.2;" xml:space="preserve">
<style type="text/css">
	.st0{fill:#686868;}
	.st1{fill:#7A2D0A;}
	.st2{fill:#DB970D;}
	.st3{fill:#EBB81E;}
	.st4{opacity:0.7;fill:#FFED85;}
	.st5{fill:#BC7D0D;}
	.st6{opacity:0.7;fill:#FFE843;}
	.st7{fill:#FFFFFF;}
	.st8{fill:#FFFFFF;stroke:#DB970D;stroke-width:2;stroke-linecap:round;stroke-linejoin:round;stroke-miterlimit:10;}
</style>
<g id="XMLID_569_">
	<path id="XMLID_570_" class="st0" d="M-474.7-686.4c-0.8-0.2-1.7-0.4-2.5-0.4h-0.2l-0.2,0.1c-2.1,1.3-4.1,2.7-5.9,4.1
		c-6.5,4.9-13.5,7.7-20.5,8.3c-5.1,0-9.4-1.3-12.7-3.8c-3.4-2.7-5.2-6.7-5.2-11.9c-0.1-0.8-0.2-1.9-0.2-3.3c0-1.4,0.3-3.2,1-5.3
		c1.7-6,5-11,9.6-14.8c3.6-3,7.4-4.5,11.3-4.5c4.1,0,7.9,1.7,11.2,5l1.2,1.2v-1.7c0-3.9-0.8-6.5-2.4-7.9c-1.3-1.2-3.8-1.7-7.8-1.7
		c-4.5,0-8.7,1-12.7,2.8c-3.9,1.9-7.3,4.4-10.2,7.6c-2.8,3.2-5.1,6.9-6.7,11c-1.6,4.1-2.5,8.5-2.5,13.1c0,6.1,2.4,11.3,7.1,15.4
		c4.4,3.8,9.8,5.8,16,5.8h1.1c5.6,0,12-1.9,18.9-5.6c3.7-2.1,8.3-5.5,13.7-10.2l0.2-0.2v-0.3C-473-685.7-474-686.2-474.7-686.4z"/>
	<path id="XMLID_629_" class="st0" d="M-424.9-681.8c-0.8-1.9-1.5-3.9-2.1-5.8c-0.6-1.8-1.1-3.4-1.6-4.8c0.4,0,0.8,0,1.4,0
		c0.7,0.1,1.4,0.1,2.3,0.2c1.9,0,3.2-0.4,4-1.2c0.6-0.7,0.8-1.6,0.6-2.6c0-1.9-1.1-2.4-1.8-2.5c-0.9-0.2-1.8-0.3-2.8-0.3h-2.3
		c-0.7,0-1.6,0-2.6-0.1c-0.8,0-1.3-0.3-1.7-0.9c-1.4-1.9-2.6-4.1-3.4-6.5c-0.9-2.4-1.8-4.9-2.7-7.3c-0.9-2.4-2-4.7-3.3-6.8
		c-1.3-2.2-3.2-4-5.7-5.3l-0.2-0.1h-0.2c-2.5,0-4.1,0.8-4.7,2.3c-0.3,0.7-0.5,1.4-0.7,2.3c-0.1,0.8-0.4,1.7-0.7,2.8
		c-0.4,1.1-1,2.9-1.9,5.4c-0.9,2.5-2,5.3-3.1,8.4c-1.1,3.1-2.4,6.4-3.6,9.8l-7.1,19.1c-1.8,4.7-1.8,4.8-1.8,5c0,0.8,0.9,1.5,3,2.3
		c1.7,0.7,2.6,0.2,2.9-0.4c2-2.5,3.8-6.9,5.4-13.3l0.7-3l21.3-5.2l11.2,23.7l0.1,0.2c0.2,0.2,0.4,0.3,0.7,0.3c0.2,0,0.3,0,2.3-1.2
		c1.3-0.8,2.4-1.8,3.4-3l0.4-0.4l-0.4-0.4C-421.1-673.6-422.9-677-424.9-681.8z M-443.2-696c-4.8,1.9-8.9,3-12.3,3.2
		c0.6-1.3,1.2-2.8,1.9-4.3c0.9-1.9,2.2-4.6,3.7-8.1c1.4-3.1,2.3-6.3,2.8-9.3c2.6,2.1,5,7.9,7.2,17.1
		C-440.9-697-442.1-696.5-443.2-696z"/>
	<path id="XMLID_632_" class="st0" d="M-363.5-672c-0.7-0.6-1.3-1-1.8-1.4c-9-5.3-17.9-10.3-26.5-15c-2.9-1.6-5.2-2.8-6.8-3.6
		c-1.6-0.8-2.8-1.5-3.6-1.9c-0.7-0.4-1.1-0.7-1.3-0.8c1.2-0.6,3.2-1.5,5.9-2.5c1.5-0.5,4.5-1.6,8.8-3.1c4.4-1.5,7.1-2.5,8.2-3
		c7.3-3.1,10.9-6.2,10.9-9.5c0-1.6-0.9-3-2.8-4.2c-1.7-1.1-4.3-2.2-7.6-3.2c-3.4-1-7.6-1.5-12.5-1.5c-7.5,0-12.9,1.3-16.1,4
		c-0.2-0.2-0.4-0.5-0.6-0.8c-1.2-1.5-2.3-2.2-3.4-2.1c-1,0.1-1.8,0.7-2.5,2l-0.1,0.2l0,0.2c0.7,6,1.1,13.1,1.1,21.1l-0.2,16.4
		c0,4.8,0.4,8.1,1.2,9.9c0.7,1.4,1.8,2.1,3.2,2.1h0.9c3,0,3.5-1.5,3.5-2.3v-17.7c3.4,1.3,8,3.8,13.5,7.3c2.6,1.6,5.2,3.3,7.7,5
		c2.5,1.7,5.5,3.8,9,6.1c4.8,3.3,6.4,3.6,7.2,3.6h1.6c0.7,0,1.4-0.1,2-0.2c0.7-0.2,1.3-0.4,1.8-0.7c0.4-0.3,1-0.9,1-2
		C-362.1-670.5-362.6-671.3-363.5-672z M-405.7-701.4c-0.2,0-0.4,0-0.5,0c-0.8-0.9-1.3-2.3-1.5-4.2c-0.1-0.8-0.2-1.8-0.2-3
		c0-1,0.2-1.8,0.7-2.5c1.2-1.8,5.7-3.9,20.6-3.9l5.2,0.1c2.2,0.4,3,1,3,1.4c0,0.6-0.9,2.5-8.8,6.1c-1.9,0.9-4,1.7-6.1,2.5
		c-2.1,0.8-4.1,1.5-5.9,2.1c-1.8,0.6-3.3,1-4.4,1.2C-404.9-701.5-405.5-701.4-405.7-701.4z"/>
	<path id="XMLID_633_" class="st0" d="M-308.6-715.9l-0.1,0l-0.1,0c-3.9,0.7-7.8,1.2-11.7,1.3l-5,0.2c-5.2,0-11.5-0.3-18.9-1
		c-4-0.4-8.1-0.7-12-0.8c-0.9,0-1.7,0.5-2.3,1.4c-0.6,0.8-0.9,1.6-0.9,2.4c0,0.7,0.1,1.4,0.4,2.2c0.4,1.3,1.2,1.5,1.6,1.5
		c0,0,0,0,0,0l16.7,0.9l-2.5,40.4l9.2-0.7l-0.1-0.7c-0.1-1.4-0.2-3.9-0.2-7.5c0-3.5,0.6-11.3,1.7-23.2c0.3-3,0.5-5.6,0.6-7.7
		c2.2-0.3,4.2-0.5,5.9-0.5l7.3,0.2h0c4.5,0,8.6-0.5,12.3-1.6l0.5-0.1v-0.5c0-0.3,0-0.8-0.1-1.4
		C-306.5-713.1-306.9-715.6-308.6-715.9z"/>
	<path id="XMLID_636_" class="st0" d="M-261.5-713.2c-4.9-3.5-11.3-5.3-18.8-5.3c-7.3,0-13.4,2.4-18.3,7.1c-2.3,2.3-4.1,5-5.4,8.2
		c-1.3,3.1-2,6.8-2,10.8c0,4,0.7,7.6,2,10.6c3.8,8.6,12.1,13,24.5,13c9,0,15.7-2.2,19.9-6.7c4.3-4.4,6.4-11.3,6.4-20.5
		C-253-703.3-255.8-709.2-261.5-713.2z M-264.1-681c-3.8,3.7-8.9,5.5-15,5.5c-12.6,0-18.7-6.1-18.7-18.5c0-4.8,1.8-9,5.3-12.4
		c3.6-3.4,7.8-5.1,12.5-5.1c6,0,11,1.3,14.9,3.8c4.6,2.9,6.8,6.9,6.8,12.4C-258.4-689.3-260.3-684.5-264.1-681z"/>
	<path id="XMLID_639_" class="st0" d="M-205.5-713.2c-4.9-3.5-11.3-5.3-18.8-5.3c-7.3,0-13.4,2.4-18.3,7.1c-2.3,2.3-4.1,5-5.4,8.2
		c-1.3,3.1-2,6.8-2,10.8c0,4,0.7,7.6,2,10.6c3.8,8.6,12.1,13,24.5,13c9,0,15.7-2.2,19.9-6.7c4.3-4.4,6.4-11.3,6.4-20.5
		C-197.1-703.3-199.9-709.2-205.5-713.2z M-208.2-681c-3.8,3.7-8.9,5.5-15,5.5c-12.6,0-18.7-6.1-18.7-18.5c0-4.8,1.8-9,5.3-12.4
		c3.6-3.4,7.8-5.1,12.5-5.1c6,0,11,1.3,14.9,3.8c4.5,2.9,6.8,6.9,6.8,12.4C-202.5-689.3-204.4-684.5-208.2-681z"/>
	<path id="XMLID_640_" class="st0" d="M-145.1-721.4c0-4.9-1.9-5.9-3.6-5.9c-1.1,0-2,0.2-2.8,0.7c-0.7,0.5-1.4,1.3-2,2.5l-0.1,0.1
		l-1.5,38.8c-7.3-9.5-14.8-19.7-22.3-30.4c-2.3-3.4-4.2-5.9-5.4-7.6c-1.3-1.8-2.4-2.9-3.3-3.5c-1.3-0.9-2.4-0.5-3,0
		c-0.7,0.5-1.6,1.3-2.8,2.4l-0.2,0.2l0,0.3c0.1,3.9,0.2,9,0.2,14.9c0,6-0.2,13.3-0.7,21.6c-0.2,3.2-0.3,6.2-0.5,9.1
		c-0.2,2.9-0.4,4.9-0.5,6.1c-0.1,1.2-0.2,2.2-0.2,2.8c0,0.8,0.4,1.5,1.1,1.9c0.6,0.3,1.5,0.4,2.9,0.4c1.4,0,2.7-0.6,3.9-1.7l0.2-0.2
		l0-0.3c0.2-3.8,0.3-8.5,0.3-14.1c0-12.8,0.4-22,1.3-27.1c2,3.1,4.3,6.3,6.6,9.4c2.7,3.6,5.5,7.3,8.3,11c7,9.3,12.1,16.6,15,21.7
		l0.2,0.3l6.8,0.6l0.2-0.4c1.4-3,2.1-12.5,2.1-29.3l-0.2-21.3L-145.1-721.4z"/>
	<path id="XMLID_643_" class="st0" d="M-55.1-694.5c-4.3-2.8-11.8-4.6-22.9-5.4c3.8-1.5,6.8-3,9-4.5c4.4-2.9,6.6-5.7,6.6-8.3
		c0-0.9-0.2-1.8-0.6-2.4c-1.5-3.1-5.3-5.5-11.5-7.2c-2.8-0.8-5.7-1.3-8.6-1.6c-2.8-0.3-6.1-0.4-9.6-0.4c-3.6,0-7.5,0.4-11.5,1.3
		c-3,0-3.5,1.7-3.5,2.7c0,1.6,0.7,2.1,1.3,2.3c0.3,0.1,0.7,0.2,1.1,0.2c-0.4,5.8-0.5,11.5-0.5,16.9c0,5.6,0.2,12.6,0.7,20.8
		c0.2,3.7,0.3,7.3,0.4,10.7l0,0.5l0.4,0.2c3.1,1.3,6.9,1.9,11.2,1.9c5.6,0,11.7-1.1,18.2-3.1c7.1-2.2,12.9-5.1,17.5-8.5
		c4.3-3.3,6.5-6.5,6.5-9.7C-51-690.7-52.4-692.8-55.1-694.5z M-98.1-716.8c0.3-0.3,1.6-0.9,6.8-0.9h2c2.1,0,4.3,0.1,6.5,0.2
		c1.4,0.1,2.8,0.3,4.3,0.5c1.4,0.2,2.8,0.6,4,1c1.1,0.4,2.1,0.9,2.8,1.5c0.6,0.5,0.9,1.2,0.9,2c0,0.8-0.5,1.7-1.4,2.5
		c-2,1.8-5.3,3.5-9.8,5.1c-6.5,2.2-12.2,3.3-16.9,3.5L-98.1-716.8z M-63.6-682.6c-2.4,1.8-6.4,3.5-11.9,5.1
		c-5.4,1.5-12.3,2.6-20.7,3.1l-1.8-17.7c14.9-3,26.6-2.9,33.4-0.2c3,1.3,4.5,2.8,4.5,4.8C-60.2-686-61.4-684.3-63.6-682.6z"/>
	<path id="XMLID_645_" class="st0" d="M-6.1-716.7l0-0.3l-0.3-0.2c-1.4-1-2.7-1.5-3.8-1.5c-1.4,0-2.4,1-3.1,2.9l0,0.2
		c-0.1,3.2-0.2,6.4-0.4,9.7c-0.3,7-1.2,13-2.8,17.9c-2.7,8.3-8.2,12.3-16.8,12.3l-0.9,0c-2.4-0.3-4.1-1-5.2-2.1
		c-1.7-1.9-2.6-4.5-2.6-7.8c0-3.3,1.1-9.4,3.2-18c0.7-2.7,1.1-5,1.1-6.9c0-3.8-1.8-4.6-3.3-4.6c-0.2,0-0.5,0-0.8,0.1h-0.9
		c-0.8,0-1.1,0.1-1.3,0.1l-0.4,0.1l0,0.5c-0.2,2.6-0.7,5.4-1.4,8.5c-2.2,10.2-3.3,17.5-3.3,21.7c0,9.7,4.2,15,12.6,15.9
		c0.8,0.1,1.5,0.1,2.3,0.1c3.8,0,7.6-0.9,11.3-2.8c2.2-1,5.4-3.3,9.8-7.1l-0.7,9.1l0.2,0.2c0.2,0.2,0.5,0.4,1.5,0.8
		c0.8,0.3,1.6,0.4,2.5,0.4c2.8,0,3.2-1.4,3.2-2.2l0,0c-0.1-2.2-0.2-4.4-0.2-6.6l0.8-31.2C-5.9-710.5-6-713.6-6.1-716.7z"/>
	<path id="XMLID_646_" class="st0" d="M99.2-715.9l-0.1,0l-0.1,0c-3.9,0.7-7.8,1.2-11.7,1.3l-5,0.2c-5.2,0-11.5-0.3-18.9-1
		c-4-0.4-8.1-0.7-12-0.8c-0.9,0-1.7,0.5-2.3,1.4c-0.1,0.1-0.2,0.3-0.2,0.4c-0.3-0.7-0.8-1.3-1.5-1.4l-0.1,0l-0.1,0
		c-3.9,0.7-7.8,1.2-11.7,1.3l-5,0.2c-5.2,0-11.5-0.3-18.9-1c-4-0.4-8.1-0.7-12-0.8c-0.9,0-1.7,0.5-2.3,1.4c-0.6,0.8-0.9,1.6-0.9,2.4
		c0,0.7,0.1,1.4,0.4,2.2c0.4,1.3,1.2,1.5,1.6,1.5c0,0,0,0,0,0l16.6,0.9l-2.5,40.4l9.2-0.7l-0.1-0.7c-0.1-1.4-0.2-3.9-0.2-7.5
		c0-3.5,0.6-11.3,1.7-23.2c0.3-3,0.5-5.6,0.6-7.7c2.2-0.3,4.2-0.5,5.9-0.5l7.3,0.2h0c4.5,0,8.6-0.5,12.3-1.6l0.2-0.1
		c0.3,0.3,0.7,0.4,1,0.4c0,0,0,0,0,0l16.6,0.9l-2.5,40.4l9.2-0.7l-0.1-0.7c-0.1-1.4-0.2-3.9-0.2-7.5c0-3.5,0.6-11.3,1.7-23.2
		c0.3-3,0.5-5.6,0.6-7.7c2.2-0.3,4.2-0.5,5.9-0.5l7.3,0.2h0c4.5,0,8.6-0.5,12.3-1.6l0.5-0.1v-0.5c0-0.3,0-0.8-0.1-1.4
		C101.2-713.1,100.8-715.6,99.2-715.9z"/>
	<path id="XMLID_649_" class="st0" d="M146.3-713.2c-4.9-3.5-11.3-5.3-18.8-5.3c-7.3,0-13.4,2.4-18.3,7.1c-2.3,2.3-4.1,5-5.4,8.2
		c-1.3,3.1-2,6.8-2,10.8c0,4,0.7,7.6,2,10.6c3.8,8.6,12.1,13,24.5,13c9,0,15.7-2.2,19.9-6.7c4.3-4.4,6.4-11.3,6.4-20.5
		C154.7-703.3,151.9-709.2,146.3-713.2z M143.6-681c-3.8,3.7-8.9,5.5-15,5.5c-12.6,0-18.7-6.1-18.7-18.5c0-4.8,1.8-9,5.3-12.4
		c3.6-3.4,7.8-5.1,12.5-5.1c6,0,11,1.3,14.9,3.8c4.5,2.9,6.8,6.9,6.8,12.4C149.3-689.3,147.4-684.5,143.6-681z"/>
	<path id="XMLID_650_" class="st0" d="M206.7-721.4c0-4.9-1.9-5.9-3.6-5.9c-1.1,0-2,0.2-2.8,0.7c-0.7,0.5-1.4,1.3-2,2.5l-0.1,0.1
		l-1.5,38.8c-7.3-9.5-14.8-19.7-22.3-30.4c-2.3-3.4-4.2-5.9-5.4-7.6c-1.3-1.8-2.4-2.9-3.3-3.5c-1.3-0.9-2.4-0.5-3,0
		c-0.7,0.5-1.6,1.3-2.8,2.4l-0.2,0.2l0,0.3c0.1,3.9,0.2,8.9,0.2,14.9c0,6-0.2,13.3-0.6,21.6c-0.2,3.2-0.3,6.2-0.5,9.1
		c-0.2,2.9-0.4,4.9-0.5,6.1c-0.1,1.2-0.2,2.2-0.2,2.8c0,0.8,0.4,1.5,1.1,1.9c0.6,0.3,1.5,0.4,2.9,0.4c1.4,0,2.7-0.6,3.9-1.7l0.2-0.2
		l0-0.3c0.2-3.8,0.3-8.5,0.3-14.1c0-12.8,0.4-22,1.3-27.1c2,3.1,4.2,6.3,6.6,9.4c2.7,3.6,5.5,7.3,8.3,11c7,9.3,12.1,16.6,15,21.7
		l0.2,0.3l6.8,0.6l0.2-0.4c1.4-3,2.1-12.5,2.1-29.3l-0.2-21.3L206.7-721.4z"/>
	<path id="XMLID_651_" class="st0" d="M259.5-690.6l-0.3-0.1c-9.8-2.8-18.1-5.2-24.8-7c-2.8-0.8-5-1.4-6.8-1.8
		c-1.7-0.5-3.2-0.9-4.5-1.2c-0.8-0.2-1.2-0.4-1.3-0.4c0.1-1.1,0.5-2,1.4-2.8c0.9-0.9,2.5-1.8,4.7-2.7c2.2-0.9,7.9-2,16.9-3.4
		c7.6-1.2,11.1-2.7,11.2-5c0.1-0.5,0-1.1-0.2-1.5c-0.4-0.7-1.2-1.1-2.4-1.4c-0.7-0.2-1.4-0.3-2.2-0.4c-0.6-0.1-1.1-0.2-1.4-0.3
		l-0.1,0l-0.1,0c-1.1,0.1-2.8,0.3-5.1,0.7c-9.9,1.7-17.9,4.2-23.8,7.6c-5.5,3.2-8.3,6.8-8.3,10.8c0,1.2,0.9,2.5,2.8,3.8
		c1,0.8,2.1,1.3,3.1,1.5l33.5,7.5c0,0.1,0,0.3,0,0.5c0,0.1-0.1,0.5-0.7,1.3c-1.5,2.2-4.7,4.3-9.3,6.5c-6.6,3.1-12.5,4.7-17.4,4.7
		c-6,0-9.1-2.2-9.3-6.7l-0.1-1.6l-1.1,1.1c-0.1,0.1-0.3,0.2-0.8,0.6c-0.5,0.3-1.2,0.9-2.1,1.7c-1,0.9-1.5,2-1.5,3.2
		c0,1.2,0.7,2.4,2.2,3.5c1.3,1,3.2,1.9,5.8,2.9c2.6,1,5.3,1.5,8.2,1.5c3.4,0,7.9-0.9,13.6-2.6c6.8-2.1,12.2-4.7,16-7.7
		c3.5-2.8,5.3-5.8,5.3-8.9c0-1.1-0.3-2.3-0.9-3.6L259.5-690.6z"/>
	<path id="XMLID_652_" class="st0" d="M346.6-690.6l-0.3-0.1c-9.7-2.8-18.1-5.2-24.8-7c-2.8-0.8-5-1.4-6.8-1.8
		c-1.7-0.5-3.2-0.9-4.5-1.2c-0.8-0.2-1.2-0.4-1.3-0.4c0.1-1.1,0.5-2,1.4-2.8c0.9-0.9,2.5-1.8,4.7-2.7c2.2-0.9,7.9-2,16.9-3.4
		c7.6-1.2,11.1-2.7,11.2-5c0.1-0.5,0-1.1-0.2-1.5c-0.4-0.7-1.2-1.1-2.4-1.4c-0.7-0.2-1.4-0.3-2.2-0.4c-0.6-0.1-1.1-0.2-1.4-0.3
		l-0.1,0l-0.1,0c-1.1,0.1-2.8,0.3-5.1,0.7c-9.9,1.7-17.9,4.2-23.8,7.6c-5.5,3.2-8.3,6.8-8.3,10.8c0,1.2,0.9,2.5,2.8,3.8
		c1,0.8,2.1,1.3,3.1,1.5l33.5,7.5c0,0.1,0,0.3,0,0.5c0,0.1-0.1,0.5-0.7,1.3c-1.5,2.2-4.7,4.3-9.3,6.5c-6.6,3.1-12.5,4.7-17.4,4.7
		c-6,0-9.1-2.2-9.3-6.7l-0.1-1.6l-1.1,1.1c-0.1,0.1-0.3,0.2-0.8,0.6c-0.5,0.3-1.2,0.9-2.1,1.7c-1,0.9-1.5,2-1.5,3.2
		c0,1.2,0.7,2.4,2.2,3.5c1.3,1,3.2,1.9,5.8,2.9c2.6,1,5.3,1.5,8.2,1.5c3.4,0,7.9-0.9,13.6-2.6c6.8-2.1,12.2-4.7,16-7.7
		c3.5-2.8,5.3-5.8,5.3-8.9c0-1.1-0.3-2.3-0.9-3.6L346.6-690.6z"/>
	<path id="XMLID_653_" class="st0" d="M388.1-676.9c-2.9,0.2-7.2,0.6-12.8,1.1c-5.3,0.5-10.6,0.7-15.8,0.8l-0.4-12l31.2-3.9v-5.8
		h-0.7c-2.8,0-5.5,0.2-8.1,0.5c-2.6,0.3-6.4,0.8-11.1,1.4c-4.4,0.6-8.4,0.9-11.9,1c0-2.6-0.1-4.9-0.3-6.8c-0.1-0.9-0.1-2.1-0.2-3.6
		c0-1.5,0.4-4.2,1.2-8.3c3-0.6,8.3-1,15.9-1.1c2.9-0.1,5.6-0.1,8.1-0.1c2.6,0,4.6-0.2,6.1-0.4l0.6-0.1v-5.1l-0.4-0.2
		c-1.9-0.7-5.5-1.1-11.1-1.1l-18.2,0.4c-3.7,0-6.3-0.2-7.6-0.6l-0.9-0.3l-0.3,52.9l0,0.8l0.8-0.1c2.6-0.2,7.7-0.6,15.2-1.2
		c7.4-0.6,16-1.4,25.4-2.4c1,0.5,2.4,0.5,4.3-1.9c0.7-1.1,1.1-2.3,1.1-3.5v-0.7h-0.7C394.1-677.3,391-677.2,388.1-676.9z"/>
	<path id="XMLID_654_" class="st0" d="M451.6-711.2c-0.2-1.9-0.6-4.4-2.2-4.7l-0.1,0l-0.1,0c-3.9,0.7-7.8,1.2-11.7,1.3l-5,0.2
		c-5.2,0-11.5-0.3-18.9-1c-4-0.4-8.1-0.7-12-0.8c-0.9,0-1.7,0.5-2.3,1.4c-0.6,0.8-0.9,1.6-0.9,2.4c0,0.7,0.1,1.4,0.4,2.2
		c0.4,1.3,1.2,1.5,1.6,1.5c0,0,0,0,0,0l16.6,0.9l-2.5,40.4l9.2-0.7l-0.1-0.7c-0.1-1.4-0.2-4-0.2-7.5c0-3.5,0.6-11.3,1.7-23.2
		c0.3-3.1,0.5-5.6,0.6-7.7c2.2-0.3,4.2-0.5,5.9-0.5l7.3,0.2h0c4.5,0,8.6-0.5,12.3-1.6l0.5-0.1v-0.5
		C451.7-710.2,451.7-710.7,451.6-711.2z"/>
</g>
<g id="XMLID_1011_">
	<g id="XMLID_179_">
		<path id="XMLID_547_" class="st1" d="M413.6,0H83C37.2,0,0,37.2,0,83l0,60.1c0,45.8,37.2,83,83,83h330.6c45.8,0,83-37.2,83-83
			l0-60.1C496.6,37.2,459.4,0,413.6,0z"/>
		<path id="XMLID_546_" class="st2" d="M413.8,222.9H82.8c-43.7,0-79.4-35.7-79.4-79.4v-37.4c0-43.7,35.7-79.4,79.4-79.4h330.9
			c43.7,0,79.4,35.7,79.4,79.4v37.4C493.2,187.1,457.5,222.9,413.8,222.9z"/>
		<path id="XMLID_545_" class="st3" d="M413.8,199.5H82.8c-43.7,0-79.4-35.7-79.4-79.4V82.7C3.4,39,39.2,3.3,82.8,3.3h330.9
			c43.7,0,79.4,35.7,79.4,79.4v37.4C493.2,163.8,457.5,199.5,413.8,199.5z"/>
		<path id="XMLID_544_" class="st4" d="M413.8,194.1H82.8c-43.7,0-79.4-35.7-79.4-79.4v5.5c0,43.7,35.7,79.4,79.4,79.4h330.9
			c43.7,0,79.4-35.7,79.4-79.4v-5.5C493.2,158.3,457.5,194.1,413.8,194.1z"/>
		<path id="XMLID_541_" class="st5" d="M413.8,217.4H82.8c-43.7,0-79.4-35.7-79.4-79.4v5.5c0,43.7,35.7,79.4,79.4,79.4h330.9
			c43.7,0,79.4-35.7,79.4-79.4V138C493.2,181.7,457.5,217.4,413.8,217.4z"/>
		<path id="XMLID_316_" class="st6" d="M413.8,3.3H248.3h0H82.8C39.2,3.3,3.4,39,3.4,82.7v12.3c22.3,19.9,57.9,32.8,98.1,32.8
			c15.4,0,278.2,0,293.6,0c40.2,0,75.8-12.9,98.1-32.8V82.7C493.2,39,457.5,3.3,413.8,3.3z"/>
		<g id="XMLID_311_">
			<path id="XMLID_314_" class="st7" d="M95.2,20.4c-9.3-10.9-31.7-9.9-49.9,2.3C27,34.9,19.8,53.6,29.1,64.6
				c9.3,10.9,17.2-1.6,35.5-13.8C82.8,38.6,104.5,31.3,95.2,20.4z"/>
			<path id="XMLID_313_" class="st7" d="M19.1,92.4c5.5,2.2,12.3-0.6,15.2-6.3c2.9-5.7,0.8-12.1-4.7-14.3c-5.5-2.2-11.7-0.7-14.6,5
				C12.1,82.5,13.6,90.2,19.1,92.4z"/>
		</g>
		<g id="XMLID_4_">
			<path id="XMLID_264_" class="st7" d="M419.1,178.9c6.9,8.2,23.6,7.5,37.3-1.5c13.7-9,19.2-23,12.3-31.2
				c-6.9-8.2-12.9,1.1-26.6,10.1C428.4,165.3,412.2,170.7,419.1,178.9z"/>
		</g>
	</g>
	<g>
		<g>
			<path class="st8" d="M122,131.8c-0.7,0-3.2,0.5-7.4,1.5c-4.2,1-6.8,1.7-7.6,2c-0.7-8-1.2-13.9-1.7-17.6s-0.8-6.5-1-8.3
				c-0.2-2.6-0.7-5.7-1.3-9.3c-0.2,1.1-0.4,2.5-0.7,4.1c-0.3,1.6-0.6,3.3-0.9,5.2c-1,5.8-2.5,14-4.5,24.8l-13.5,3.1
				c6.6-33.1,10.6-55.5,11.9-67.1c1.9-0.1,3.7-0.3,5.4-0.4c1.7-0.1,3.4-0.3,5-0.4c1.7-0.1,3.1-0.2,4.4-0.3c0.8,4.7,1.4,8.6,1.9,11.7
				c0.5,3.1,0.9,5.6,1.2,7.6c0.3,2,0.6,3.9,0.9,5.8c0.6,3.7,1.2,6.9,1.9,9.7c0.2-1.3,0.5-2.7,0.8-4.4c0.3-1.7,0.6-3.5,1-5.3
				s0.7-3.8,1.2-5.8c0.4-1.9,0.9-4.5,1.6-7.5c0.6-3.1,1.4-7,2.4-11.6l11.2-1.3C127.6,97.7,123.5,119,122,131.8z"/>
			<path class="st8" d="M125.3,136.9l12-65.4l29.1-2.5c-0.4,1.4-0.8,2.7-1.1,4c-0.3,1.3-0.6,2.6-0.9,3.8c-0.3,1.3-0.5,2.4-0.7,3.3
				c-1.8,0.2-4.3,0.3-7.4,0.3h-6.2L147,96.9c3.3-0.2,6-0.3,8.3-0.4c2.2-0.1,3.7-0.1,4.3-0.2c-0.2,1.7-0.5,3.4-0.7,5.1
				c-0.2,1.6-0.5,3.3-0.8,5.1c-0.7,0.1-1.7,0.1-3.1,0.1c-1.4,0-2.8,0.1-4.3,0.1c-1.5,0.1-3.2,0.1-5,0.2l-3.1,17l13.4-2.2l-0.9,10.5
				L125.3,136.9z"/>
			<path class="st8" d="M182.5,70.1c0,0.1-2.2,13.7-6.5,40.6h1.4c1.7-6.3,3.4-12.3,5-17.7s2.7-9.2,3.3-11.3c1.2-4.6,2.2-8,2.9-10.3
				h0.8c3,0,6.2-0.4,9.7-1.2c-0.1,0.5-0.3,1.7-0.4,3.4c-0.2,1.7-0.3,3.8-0.6,6.2c-0.2,2.4-0.5,5.1-0.7,8c-0.2,2.9-0.5,5.8-0.7,8.6
				c-0.4,5.1-0.9,9.9-1.3,14.4h1.7l8.7-39.5c2.1-0.3,4.1-0.6,6-0.8c5-0.7,8.6-1.2,10.7-1.6c-2.4,6.9-4.6,14.4-6.6,22.5
				c-4.8,18.9-8.1,32.7-10.1,41.2l-20.8,3.5l4-35.5h-1.2l-9.1,33.3l-19.1,3.4l7-65.3c2.9-0.1,5.6-0.4,8.1-0.9
				C177.4,70.6,179.9,70.2,182.5,70.1z"/>
			<path class="st8" d="M268.8,86.3c-1-4.6-2.8-6.8-5.3-6.8c-1.6,0-3.2,1.1-5.1,3.3c-1.8,2.2-3.5,5-5.2,8.4
				c-3.7,8-5.6,15.8-5.8,23.4c0,3.8,0.6,6.6,1.7,8.2c1.1,1.6,2.5,2.4,4,2.4c1.5,0,2.9-0.3,4.2-0.9c1.3-0.6,2.5-1.5,3.5-2.6
				c2.4-2.5,3.7-5.5,3.8-8.9l-9.8,1.4l1.7-9.1c8.4-1.1,16-2.2,22.7-3.4c-0.4,6.2-1.6,11.7-3.7,16.3c-2,4.6-4.5,8.5-7.3,11.6
				c-2.8,3.1-5.9,5.5-9.2,7c-3.3,1.6-6.2,2.3-8.8,2.3s-4.9-0.5-7-1.5c-2-1-3.8-2.5-5.3-4.5c-3.2-4.3-4.9-10.4-4.9-18.2
				s1.1-14.7,3.4-20.5c2.3-5.9,5.1-10.8,8.6-14.7c3.4-3.9,7.2-6.8,11.1-8.8c4-1.9,7.4-2.9,10.4-2.9c2.9,0,5.3,0.4,7.1,1.3
				c1.8,0.9,3.3,2,4.4,3.5c2.3,2.8,3.4,6.5,3.4,11.1L268.8,86.3z"/>
			<path class="st8" d="M292.6,121.1l-3.7,13.2c-1.4,0.2-3,0.4-4.8,0.6c-1.8,0.2-3.6,0.5-5.4,0.7c-1.8,0.2-3.7,0.4-5.6,0.7
				c2.5-8.1,4.5-15,6.2-20.7c1.7-5.6,3.1-10.3,4.2-13.9c1.1-3.6,2.1-7.2,3.2-10.8c1-3.6,2.1-7,3.1-10.3s1.9-6.4,2.7-9.1
				c11.1-0.8,19.5-1.7,25.3-2.9c-0.5,5.9-1,12.9-1.3,21c-0.8,16.1-1.4,31-2,44.6c-1.8,0.3-3.5,0.6-5.3,0.8c-1.7,0.2-3.5,0.5-5.3,0.8
				c-1.8,0.3-3.5,0.6-5,0.8c0.7-5.8,1.2-10.9,1.7-15.5H292.6z M294.8,111.9l6.6-0.4c0-0.4,0-1,0.1-1.8c0.1-0.9,0.2-1.9,0.3-3
				c0.5-6.4,1-12.4,1.5-17.9l0.6-8l-1.4,0.1L294.8,111.9z"/>
			<path class="st8" d="M347.5,104.6c6.9-18.5,11.4-30.1,13.7-34.8c3.1-0.4,5.6-0.7,7.5-1c1.9-0.3,3.6-0.6,5-0.8
				c1.4-0.2,2.9-0.5,4.5-0.8c-2.9,17.4-5.4,39.3-7.4,65.7l-16.1,2.9c0-2.2,0.3-5.6,0.8-10.4l1.3-10.8c0.6-5.4,1.2-9.7,1.7-12.7h-0.8
				c-0.8,2.6-1.8,5.3-2.8,8.1c-1,2.8-2.1,5.7-3.2,8.7c-1.1,2.9-2.1,5.8-3.2,8.7c-1,2.8-2,5.6-2.7,8.1c-2.2,0.1-4,0.2-5.5,0.3
				l-5.4,0.3l3-34.1h-1.3c-0.1,0.8-0.4,2.1-0.9,4c-0.5,1.9-1.1,4-1.7,6.5s-1.3,4.9-2.1,7.5c-0.8,2.6-1.5,5-2.1,7.2
				c-1.1,3.8-1.9,6.5-2.3,8l-15.2,1c9.8-29.5,16.4-51,19.9-64.7c3.4,0,6.6-0.2,9.6-0.5c3-0.4,6.2-0.7,9.7-1
				c-0.2,1.3-0.4,2.8-0.6,4.5c-0.2,1.7-0.4,3.4-0.7,5.3c-0.3,1.9-0.6,3.8-0.9,5.7c-0.3,1.9-0.7,4.5-1.1,7.5c-0.4,3.1-1,6.9-1.8,11.5
				H347.5z"/>
			<path class="st8" d="M372.6,136.9l12-65.4l29.1-2.5c-0.4,1.4-0.8,2.7-1.1,4c-0.3,1.3-0.6,2.6-0.9,3.8c-0.3,1.3-0.5,2.4-0.7,3.3
				c-1.8,0.2-4.3,0.3-7.4,0.3h-6.2l-3.2,16.5c3.3-0.2,6-0.3,8.3-0.4c2.2-0.1,3.7-0.1,4.3-0.2c-0.2,1.7-0.5,3.4-0.7,5.1
				c-0.2,1.6-0.5,3.3-0.8,5.1c-0.7,0.1-1.7,0.1-3.1,0.1c-1.4,0-2.8,0.1-4.3,0.1c-1.5,0.1-3.2,0.1-5,0.2l-3.1,17l13.4-2.2l-0.9,10.5
				L372.6,136.9z"/>
		</g>
	</g>
</g>
</svg>
