<svg width="823" height="480" viewBox="0 0 823 480" fill="none" xmlns="http://www.w3.org/2000/svg">
<g opacity="0.7">
<path d="M415.764 112.045C415.764 116.736 412.109 120.557 407.481 120.843V120.865H345.889C341.016 120.865 337.061 116.919 337.061 112.045C337.061 107.172 341.016 103.217 345.889 103.217C347.559 103.217 349.117 103.692 350.445 104.491C351.624 98.8347 356.647 94.5787 362.66 94.5787C363.435 94.5787 364.203 94.6493 364.937 94.792C365.981 89.144 370.641 84.7773 376.416 84.144C376.836 84.1053 377.255 84.0813 377.683 84.0733L377.856 84.0653C385.111 84.0653 390.996 89.9427 390.996 97.1973C390.996 97.8373 390.949 98.4707 390.861 99.088C391.652 98.8427 392.491 98.7 393.353 98.7C397.301 98.7 400.6 101.445 401.479 105.124C402.98 103.929 404.871 103.217 406.936 103.217C411.817 103.217 415.764 107.172 415.764 112.045Z" fill="#79C1A4"/>
<path d="M415.764 112.045C415.764 116.736 412.109 120.557 407.481 120.843V120.865H376.416V84.144C376.836 84.1053 377.255 84.0813 377.683 84.0733L377.856 84.0653C385.111 84.0653 390.996 89.9427 390.996 97.1973C390.996 97.8373 390.949 98.4707 390.861 99.088C391.652 98.8427 392.491 98.7 393.353 98.7C397.301 98.7 400.6 101.445 401.479 105.124C402.98 103.929 404.871 103.217 406.936 103.217C411.817 103.217 415.764 107.172 415.764 112.045" fill="#65B293"/>
<path d="M783.272 73.5067C783.272 78.324 779.512 82.2507 774.763 82.5453V82.5693H711.493C706.485 82.5693 702.424 78.5147 702.424 73.5067C702.424 68.5 706.485 64.4386 711.493 64.4386C713.207 64.4386 714.805 64.924 716.169 65.748C717.385 59.936 722.54 55.5667 728.72 55.5667C729.52 55.5667 730.307 55.6413 731.061 55.7827C732.216 49.564 737.623 44.852 744.153 44.7733L744.332 44.7666C751.785 44.7666 757.829 50.8053 757.829 58.2587C757.829 58.916 757.781 59.56 757.689 60.1933C758.5 59.9413 759.36 59.8 760.252 59.8C764.307 59.8 767.692 62.6147 768.593 66.392C770.137 65.1693 772.084 64.4386 774.203 64.4386C779.211 64.4386 783.272 68.5 783.272 73.5067" fill="#A9E2DF"/>
<path d="M744.153 44.7733V82.5693H711.493C706.485 82.5693 702.424 78.5147 702.424 73.5067C702.424 68.5 706.485 64.4386 711.493 64.4386C713.207 64.4386 714.805 64.924 716.169 65.748C717.385 59.936 722.54 55.5666 728.72 55.5666C729.52 55.5666 730.307 55.6413 731.061 55.7827C732.216 49.564 737.623 44.852 744.153 44.7733" fill="#CBEEEB"/>
<path d="M203.332 186.179C203.332 189.581 200.676 192.353 197.321 192.561V192.579H152.637C149.1 192.579 146.232 189.715 146.232 186.179C146.232 182.641 149.1 179.775 152.637 179.775C153.847 179.775 154.976 180.116 155.939 180.699C156.799 176.593 160.439 173.508 164.804 173.508C165.368 173.508 165.924 173.56 166.457 173.66C167.273 169.269 171.091 165.941 175.704 165.884L175.829 165.88C181.093 165.88 185.363 170.145 185.363 175.409C185.363 175.873 185.328 176.329 185.263 176.776C185.836 176.597 186.444 176.499 187.072 176.499C189.936 176.499 192.327 178.485 192.965 181.153C194.055 180.291 195.429 179.775 196.927 179.775C200.463 179.775 203.332 182.641 203.332 186.179" fill="#A9E2DF"/>
<path d="M175.704 165.884V192.579H152.637C149.1 192.579 146.232 189.715 146.232 186.179C146.232 182.641 149.1 179.775 152.637 179.775C153.847 179.775 154.976 180.116 155.939 180.699C156.799 176.593 160.439 173.508 164.804 173.508C165.368 173.508 165.924 173.56 166.457 173.66C167.273 169.269 171.091 165.941 175.704 165.884Z" fill="#CBEEEB"/>
<path d="M220.048 87.8787C220.048 90.4773 218.019 92.5947 215.456 92.7547V92.768H181.32C178.619 92.768 176.427 90.58 176.427 87.8787C176.427 85.176 178.619 82.9853 181.32 82.9853C182.244 82.9853 183.107 83.248 183.843 83.692C184.499 80.556 187.28 78.1987 190.615 78.1987C191.045 78.1987 191.471 78.2387 191.877 78.3147C192.501 74.96 195.419 72.4174 198.941 72.3747L199.037 72.3707C203.059 72.3707 206.32 75.6294 206.32 79.6507C206.32 80.0054 206.293 80.3533 206.244 80.6947C206.681 80.5587 207.147 80.4827 207.627 80.4827C209.815 80.4827 211.641 82 212.128 84.04C212.96 83.38 214.011 82.9853 215.155 82.9853C217.856 82.9853 220.048 85.176 220.048 87.8787" fill="#A9E2DF"/>
<path d="M198.941 72.3747V92.768H181.32C178.619 92.768 176.427 90.58 176.427 87.8787C176.427 85.176 178.619 82.9853 181.32 82.9853C182.244 82.9853 183.107 83.248 183.843 83.692C184.499 80.556 187.28 78.1987 190.615 78.1987C191.045 78.1987 191.471 78.2387 191.877 78.3147C192.501 74.96 195.419 72.4174 198.941 72.3747Z" fill="#CBEEEB"/>
<path d="M822.109 346.552C822.109 349.955 819.455 352.727 816.1 352.935V352.953H771.416C767.879 352.953 765.011 350.088 765.011 346.552C765.011 343.016 767.879 340.147 771.416 340.147C772.627 340.147 773.755 340.491 774.717 341.072C775.577 336.968 779.217 333.881 783.583 333.881C784.147 333.881 784.703 333.933 785.236 334.033C786.052 329.643 789.869 326.315 794.483 326.257L794.608 326.253C799.871 326.253 804.143 330.52 804.143 335.783C804.143 336.248 804.107 336.703 804.041 337.149C804.615 336.972 805.221 336.871 805.852 336.871C808.715 336.871 811.105 338.86 811.744 341.528C812.833 340.664 814.208 340.147 815.705 340.147C819.243 340.147 822.109 343.016 822.109 346.552" fill="#A9E2DF"/>
<path d="M794.483 326.257V352.953H771.416C767.879 352.953 765.011 350.088 765.011 346.552C765.011 343.016 767.879 340.147 771.416 340.147C772.627 340.147 773.755 340.491 774.717 341.072C775.577 336.968 779.217 333.881 783.583 333.881C784.147 333.881 784.703 333.933 785.236 334.033C786.052 329.643 789.869 326.315 794.483 326.257Z" fill="#CBEEEB"/>
<path d="M57.0987 292.052C57.0987 295.455 54.444 298.227 51.0893 298.435V298.452H6.40399C2.86799 298.452 0 295.588 0 292.052C0 288.516 2.86799 285.647 6.40399 285.647C7.61599 285.647 8.744 285.991 9.70667 286.572C10.5653 282.468 14.2067 279.381 18.572 279.381C19.136 279.381 19.6907 279.433 20.2253 279.533C21.04 275.141 24.8587 271.813 29.472 271.757L29.5973 271.753C34.8613 271.753 39.1307 276.02 39.1307 281.283C39.1307 281.747 39.096 282.201 39.0307 282.649C39.604 282.472 40.2107 282.371 40.84 282.371C43.704 282.371 46.0947 284.36 46.732 287.028C47.8213 286.164 49.1973 285.647 50.6947 285.647C54.2307 285.647 57.0987 288.516 57.0987 292.052" fill="#A9E2DF"/>
<path d="M29.472 271.757V298.452H6.40399C2.86799 298.452 0 295.588 0 292.052C0 288.516 2.86799 285.647 6.40399 285.647C7.61599 285.647 8.744 285.991 9.70666 286.572C10.5653 282.468 14.2067 279.381 18.572 279.381C19.136 279.381 19.6907 279.433 20.2253 279.533C21.04 275.141 24.8587 271.813 29.472 271.757" fill="#CBEEEB"/>
<path d="M717.793 258.725C717.793 262.317 714.995 265.243 711.452 265.46V265.479H664.295C660.564 265.479 657.536 262.456 657.536 258.725C657.536 254.995 660.564 251.967 664.295 251.967C665.573 251.967 666.765 252.331 667.784 252.941C668.687 248.612 672.532 245.353 677.135 245.353C677.728 245.353 678.316 245.407 678.879 245.516C679.679 241.192 683.247 237.848 687.667 237.364C687.988 237.333 688.309 237.316 688.637 237.309L688.769 237.304C694.323 237.304 698.829 241.804 698.829 247.357C698.829 247.848 698.793 248.333 698.727 248.805C699.332 248.617 699.975 248.508 700.635 248.508C703.656 248.508 706.183 250.611 706.855 253.425C708.005 252.512 709.453 251.967 711.035 251.967C714.771 251.967 717.793 254.995 717.793 258.725" fill="#79C1A4"/>
<path d="M717.793 258.725C717.793 262.317 714.995 265.243 711.452 265.46V265.479H687.667V237.364C687.988 237.333 688.309 237.316 688.637 237.309L688.769 237.304C694.323 237.304 698.829 241.804 698.829 247.357C698.829 247.848 698.793 248.333 698.727 248.805C699.332 248.617 699.975 248.508 700.635 248.508C703.656 248.508 706.183 250.611 706.855 253.425C708.005 252.512 709.453 251.967 711.035 251.967C714.771 251.967 717.793 254.995 717.793 258.725" fill="#65B293"/>
<path d="M242.735 472.331H644.731L443.74 0.00136584L443.729 0.0200019L443.691 0.114688L358.731 199.749L358.687 199.859L337.491 249.668L337.487 249.672L242.735 472.331" fill="#B9E7DB"/>
<path d="M242.735 472.331H443.729V0.0199597L443.691 0.114646L358.731 199.749L358.687 199.859L337.491 249.668L337.487 249.672L325.728 277.309H325.724L242.735 472.331Z" fill="#A7D1C3"/>
<path d="M337.491 249.667C350.899 237.337 363.923 224.56 376.897 211.817C383.305 205.528 389.709 199.237 396.113 192.947C411.969 220.309 427.819 247.667 443.671 275.029L443.691 274.98L443.729 274.887C455.857 245.125 469.397 215.94 484.299 187.465C483.628 188.751 532.695 228.443 537.225 232.487C540.053 235.008 543.255 238.86 546.693 241.944L443.74 2.65656e-05L443.729 0.0200054L443.691 0.114691L358.731 199.749L358.687 199.859L337.491 249.667" fill="#DCF3EB"/>
<path d="M337.491 249.667C350.899 237.337 363.923 224.56 376.897 211.817C383.305 205.528 389.709 199.237 396.113 192.947C411.969 220.309 427.819 247.667 443.671 275.029L443.691 274.98V0.114691L358.731 199.749L358.687 199.859L337.491 249.667" fill="#C3EADC"/>
<path d="M402.127 97.772C406.472 93.6973 410.816 89.624 415.165 85.5507C419.983 81.0293 424.824 76.488 428.824 71.232C434.991 84.4333 439.977 98.1907 443.691 112.283L443.729 112.199C450.212 98.816 456.7 85.428 463.177 72.0493C470.536 81.1867 477.889 90.324 485.249 99.4613C485.845 100.2 486.431 100.948 487.023 101.712L443.74 1.68651e-05L443.729 0.0199957L443.691 0.114682L402.127 97.772" fill="white"/>
<path d="M402.127 97.772C406.472 93.6973 410.816 89.624 415.165 85.5507C419.983 81.0293 424.824 76.488 428.824 71.232C434.991 84.4333 439.977 98.1907 443.691 112.283V0.114682L402.127 97.772Z" fill="#E2EDE8"/>
<path d="M110.596 472.331H437.845L274.227 87.824L274.219 87.84L274.187 87.9173L205.024 250.433L204.988 250.521L187.733 291.069L187.729 291.073L110.596 472.331" fill="#B9E7DB"/>
<path d="M110.596 472.331H274.219V87.84L274.187 87.9173L205.024 250.433L204.988 250.521L187.733 291.069L187.729 291.073L178.157 313.572H178.153L110.596 472.331Z" fill="#A7D1C3"/>
<path d="M187.733 291.069C198.648 281.032 209.251 270.631 219.813 260.256C225.029 255.136 230.243 250.016 235.455 244.895C248.363 267.169 261.267 289.44 274.171 311.715L274.219 311.599C284.091 287.371 295.113 263.613 307.244 240.432C306.699 241.479 346.641 273.791 350.329 277.083C352.631 279.136 355.237 282.271 358.036 284.781L274.227 87.824L274.219 87.84L274.187 87.9173L205.024 250.433L204.988 250.521L187.733 291.069" fill="#DCF3EB"/>
<path d="M187.733 291.069C198.648 281.032 209.251 270.631 219.813 260.256C225.029 255.136 230.243 250.016 235.455 244.895C248.363 267.169 261.267 289.44 274.171 311.715L274.187 311.676V87.9173L205.024 250.433L204.988 250.521L187.733 291.069" fill="#C3EADC"/>
<path d="M240.351 167.417C243.888 164.1 247.424 160.784 250.965 157.468C254.887 153.787 258.828 150.089 262.084 145.811C267.105 156.557 271.163 167.757 274.187 179.229L274.219 179.161C279.495 168.267 284.776 157.368 290.049 146.476C296.04 153.916 302.027 161.353 308.017 168.792C308.503 169.393 308.98 170.003 309.461 170.624L274.227 87.824L274.219 87.84L274.187 87.9173L240.351 167.417" fill="white"/>
<path d="M492.392 472.331H722.337L607.371 202.153L607.364 202.165L607.341 202.219L558.744 316.412L558.719 316.475L546.593 344.965L546.591 344.968L492.392 472.331" fill="#B9E7DB"/>
<path d="M492.392 472.331H607.364V202.165L607.341 202.219L558.744 316.412L558.719 316.475L546.593 344.965L546.591 344.968L539.865 360.777H539.863L492.392 472.331Z" fill="#A7D1C3"/>
<path d="M546.593 344.965C554.263 337.913 561.713 330.604 569.135 323.315C572.801 319.716 576.464 316.119 580.127 312.521C589.195 328.172 598.263 343.821 607.329 359.472L607.341 359.444L607.364 359.391C614.301 342.367 622.045 325.673 630.569 309.384C630.187 310.12 658.252 332.824 660.844 335.136C662.461 336.58 664.293 338.783 666.259 340.547L607.371 202.153L607.364 202.165L607.341 202.219L558.744 316.412L558.719 316.475L546.593 344.965" fill="#DCF3EB"/>
<path d="M546.593 344.965C554.263 337.913 561.713 330.604 569.135 323.315C572.801 319.716 576.464 316.119 580.127 312.521C589.195 328.172 598.263 343.821 607.329 359.472L607.341 359.444V202.219L558.744 316.412L558.719 316.475L546.593 344.965" fill="#C3EADC"/>
<path d="M583.567 258.08C586.052 255.749 588.536 253.419 591.025 251.089C593.78 248.503 596.549 245.904 598.837 242.899C602.365 250.449 605.216 258.319 607.341 266.38L607.364 266.332C611.072 258.676 614.783 251.019 618.487 243.365C622.697 248.592 626.904 253.819 631.113 259.045C631.455 259.468 631.789 259.896 632.128 260.333L607.369 202.153L607.364 202.165L607.341 202.219L583.567 258.08" fill="white"/>
<path d="M583.567 258.08C586.052 255.749 588.536 253.419 591.025 251.089C593.78 248.503 596.549 245.904 598.837 242.899C602.365 250.449 605.216 258.319 607.341 266.38V202.219L583.567 258.08" fill="#E2EDE8"/>
<path d="M273.399 472.331H563.313L418.361 131.692L418.355 131.707L418.325 131.773L357.053 275.748L357.021 275.827L341.736 311.749L341.732 311.752L273.399 472.331" fill="#93CB4B"/>
<path d="M273.399 472.331H418.355V131.707L418.325 131.773L357.053 275.748L357.021 275.827L341.736 311.749L341.732 311.752L333.253 331.685H333.249L273.399 472.331Z" fill="#7FAE2F"/>
<path d="M341.736 311.749C351.405 302.857 360.797 293.641 370.155 284.452C374.777 279.916 379.395 275.379 384.013 270.843C395.448 290.576 406.88 310.307 418.312 330.039L418.325 330.004L418.355 329.936C427.1 308.473 436.865 287.425 447.611 266.889C447.128 267.816 482.513 296.441 485.781 299.359C487.82 301.177 490.131 303.955 492.609 306.179L418.361 131.692L418.355 131.707L418.325 131.773L357.053 275.749L357.021 275.827L341.736 311.749" fill="#B1DC68"/>
<path d="M341.736 311.749C351.405 302.857 360.797 293.641 370.155 284.452C374.777 279.916 379.395 275.379 384.013 270.843C395.448 290.576 406.88 310.307 418.312 330.039L418.325 330.004V131.773L357.053 275.749L357.021 275.827L341.736 311.749Z" fill="#9DC54A"/>
<path d="M388.351 202.203C391.483 199.265 394.617 196.328 397.753 193.389C401.228 190.129 404.72 186.853 407.604 183.063C412.052 192.584 415.647 202.505 418.325 212.668L418.355 212.608C423.029 202.956 427.707 193.301 432.379 183.653C437.687 190.243 442.989 196.832 448.297 203.421C448.727 203.955 449.149 204.495 449.576 205.045L418.361 131.692L418.355 131.707L418.325 131.773L388.351 202.203" fill="#E3F2B0"/>
<path d="M388.351 202.203C391.483 199.265 394.617 196.328 397.753 193.389C401.228 190.129 404.72 186.853 407.604 183.063C412.052 192.584 415.647 202.505 418.325 212.668V131.773L388.351 202.203Z" fill="#D5EC8E"/>
<path d="M188.372 472.331H398.945L293.663 224.916L293.657 224.925L293.636 224.975L249.133 329.548L249.111 329.604L238.007 355.696L238.005 355.697L188.372 472.331" fill="#93CB4B"/>
<path d="M188.372 472.331H293.657V224.925L293.636 224.975L249.133 329.548L249.111 329.604L238.007 355.696L238.005 355.697L231.845 370.176H231.843L188.372 472.331Z" fill="#7FAE2F"/>
<path d="M238.007 355.696C245.031 349.237 251.853 342.544 258.649 335.869C262.005 332.575 265.36 329.28 268.715 325.984C277.02 340.317 285.323 354.648 293.627 368.98L293.636 368.955L293.657 368.907C300.009 353.316 307.103 338.029 314.908 323.113C314.557 323.787 340.257 344.577 342.632 346.695C344.113 348.017 345.789 350.033 347.592 351.649L293.663 224.916L293.657 224.925L293.636 224.975L249.133 329.548L249.111 329.604L238.007 355.696" fill="#B1DC68"/>
<path d="M238.007 355.696C245.031 349.237 251.853 342.544 258.649 335.869C262.005 332.575 265.36 329.28 268.715 325.984C277.02 340.317 285.323 354.648 293.627 368.98L293.636 368.955V224.975L249.133 329.548L249.111 329.604L238.007 355.696" fill="#9DC54A"/>
<path d="M271.865 276.131C274.141 273.996 276.416 271.861 278.695 269.728C281.219 267.36 283.755 264.981 285.849 262.228C289.08 269.143 291.691 276.349 293.636 283.732L293.657 283.688C297.053 276.677 300.451 269.664 303.844 262.656C307.699 267.443 311.551 272.229 315.405 277.015C315.717 277.403 316.025 277.795 316.335 278.195L293.663 224.916L293.657 224.925L293.636 224.975L271.865 276.131" fill="#E3F2B0"/>
<path d="M271.865 276.131C274.141 273.996 276.416 271.861 278.695 269.728C281.219 267.36 283.755 264.981 285.849 262.228C289.08 269.143 291.691 276.349 293.636 283.732V224.975L271.865 276.131Z" fill="#D5EC8E"/>
<path d="M434.044 472.331H593.429L513.74 285.059L513.736 285.067L513.72 285.103L480.035 364.256L480.017 364.3L471.613 384.047L471.612 384.049L434.044 472.331" fill="#93CB4B"/>
<path d="M434.044 472.331H513.736V285.067L513.72 285.103L480.035 364.256L480.017 364.3L471.613 384.047L471.612 384.049L466.949 395.008H466.948L434.044 472.331Z" fill="#7FAE2F"/>
<path d="M471.613 384.047C476.929 379.159 482.093 374.092 487.237 369.04C489.779 366.547 492.317 364.053 494.857 361.559C501.144 372.408 507.428 383.255 513.712 394.103L513.72 394.084L513.736 394.047C518.544 382.248 523.913 370.676 529.82 359.385C529.555 359.895 549.009 375.632 550.807 377.236C551.927 378.236 553.196 379.763 554.559 380.985L513.74 285.059L513.736 285.067L513.72 285.103L480.035 364.256L480.017 364.3L471.613 384.047" fill="#B1DC68"/>
<path d="M471.613 384.047C476.929 379.159 482.093 374.092 487.237 369.04C489.779 366.547 492.317 364.053 494.857 361.559C501.144 372.408 507.428 383.255 513.712 394.103L513.72 394.084V285.103L480.035 364.256L480.017 364.3L471.613 384.047" fill="#9DC54A"/>
<path d="M497.241 323.823C498.964 322.208 500.687 320.592 502.411 318.977C504.32 317.185 506.24 315.384 507.825 313.301C510.271 318.533 512.248 323.989 513.72 329.577L513.736 329.543C516.307 324.237 518.877 318.928 521.447 313.625C524.364 317.248 527.28 320.869 530.199 324.493C530.433 324.787 530.667 325.084 530.901 325.385L513.74 285.059L513.736 285.067L513.72 285.103L497.241 323.823" fill="#E3F2B0"/>
<path d="M497.241 323.823C498.964 322.208 500.687 320.592 502.411 318.977C504.32 317.185 506.24 315.384 507.825 313.301C510.271 318.533 512.248 323.989 513.72 329.577V285.103L497.241 323.823Z" fill="#D5EC8E"/>
<path d="M104.796 472.331H237.648L171.224 316.235L171.221 316.241L171.208 316.271L143.131 382.248L143.116 382.283L136.111 398.745L136.109 398.747L104.796 472.331" fill="#93CB4B"/>
<path d="M104.796 472.331H171.221V316.241L171.208 316.271L143.131 382.248L143.116 382.283L136.111 398.745L136.109 398.747L132.224 407.88H132.223L104.796 472.331" fill="#7FAE2F"/>
<path d="M136.111 398.745C140.543 394.669 144.847 390.447 149.135 386.236C151.252 384.156 153.368 382.079 155.484 379.999C160.725 389.041 165.963 398.084 171.201 407.127L171.208 407.109L171.221 407.079C175.229 397.244 179.704 387.597 184.628 378.188C184.407 378.612 200.621 391.729 202.12 393.067C203.055 393.9 204.112 395.173 205.249 396.192L171.224 316.235L171.221 316.241L171.208 316.271L143.131 382.248L143.116 382.283L136.111 398.745" fill="#B1DC68"/>
<path d="M136.111 398.745C140.543 394.669 144.847 390.447 149.135 386.236C151.252 384.156 153.368 382.079 155.484 379.999C160.725 389.041 165.963 398.084 171.201 407.127L171.208 407.109V316.271L143.131 382.248L143.116 382.283L136.111 398.745" fill="#9DC54A"/>
<path d="M157.472 348.545C158.908 347.199 160.344 345.853 161.781 344.507C163.373 343.012 164.973 341.512 166.295 339.775C168.333 344.137 169.98 348.684 171.208 353.341L171.221 353.313C173.364 348.891 175.507 344.467 177.648 340.044C180.08 343.064 182.511 346.085 184.943 349.104C185.14 349.348 185.333 349.595 185.529 349.848L171.224 316.235L171.221 316.241L171.208 316.271L157.472 348.545" fill="#E3F2B0"/>
<path d="M157.472 348.545C158.908 347.199 160.344 345.853 161.781 344.507C163.373 343.012 164.973 341.512 166.295 339.775C168.333 344.137 169.98 348.684 171.208 353.341V316.271L157.472 348.545Z" fill="#D5EC8E"/>
<path d="M560.217 472.331H728.139L644.18 275.029L644.176 275.037L644.16 275.077L608.671 358.469L608.652 358.515L599.799 379.32L599.797 379.321L560.217 472.331" fill="#93CB4B"/>
<path d="M560.217 472.331H644.176V275.037L644.16 275.077L608.671 358.469L608.652 358.515L599.799 379.32L599.797 379.321L594.885 390.867H594.883L560.217 472.331Z" fill="#7FAE2F"/>
<path d="M599.799 379.32C605.4 374.171 610.84 368.832 616.26 363.509C618.936 360.881 621.611 358.255 624.285 355.628C630.909 367.057 637.531 378.484 644.151 389.915L644.16 389.895L644.176 389.855C649.243 377.423 654.899 365.232 661.123 353.337C660.843 353.873 681.339 370.455 683.231 372.143C684.412 373.196 685.751 374.807 687.187 376.093L644.18 275.029L644.176 275.037L644.16 275.077L608.671 358.469L608.652 358.515L599.799 379.32" fill="#B1DC68"/>
<path d="M599.799 379.32C605.4 374.171 610.84 368.832 616.26 363.509C618.936 360.881 621.611 358.255 624.285 355.628C630.909 367.057 637.531 378.484 644.151 389.915L644.16 389.895V275.077L608.671 358.469L608.652 358.515L599.799 379.32" fill="#9DC54A"/>
<path d="M626.799 315.871C628.613 314.169 630.427 312.468 632.245 310.765C634.257 308.876 636.279 306.979 637.951 304.784C640.527 310.299 642.608 316.045 644.16 321.932L644.176 321.897C646.884 316.307 649.593 310.715 652.3 305.127C655.373 308.943 658.445 312.759 661.52 316.577C661.768 316.885 662.013 317.197 662.26 317.517L644.18 275.029L644.176 275.037L644.16 275.077L626.799 315.871" fill="#E3F2B0"/>
<path d="M626.799 315.871C628.613 314.169 630.427 312.468 632.245 310.765C634.257 308.876 636.279 306.979 637.951 304.784C640.527 310.299 642.608 316.045 644.16 321.932V275.077L626.799 315.871Z" fill="#D5EC8E"/>
<path d="M712.037 372.249H768.881V449.987H712.037V372.249Z" fill="#EEF9F6"/>
<path d="M712.037 415.44C709.307 415.109 706.527 414.931 703.704 414.913L686.38 374.199C693.059 371.857 700.296 370.577 707.853 370.577C712.939 370.577 717.88 371.156 722.603 372.249C720.123 387.035 716.573 401.46 712.037 415.44" fill="#ECF7DF"/>
<path d="M213.011 414.432L178.213 332.657C185.092 330.828 192.355 329.848 199.863 329.848C216.099 329.848 231.185 334.427 243.717 342.276L238.007 355.696L238.005 355.697L213.011 414.432Z" fill="#C1E6DB"/>
<path d="M470.856 385.824C462.113 383.087 452.755 381.604 443.021 381.604C434.455 381.604 426.177 382.753 418.355 384.895V370.261C420.331 371.579 422.203 373.023 423.957 374.581C431.276 362.803 444.947 354.876 460.607 354.876C468.32 354.876 475.552 356.799 481.779 360.159L480.035 364.256L480.017 364.3L471.613 384.047L471.612 384.049L470.856 385.824" fill="#B7E394"/>
<path d="M373.833 413.319L356.219 371.925C365.04 365.304 376.253 361.343 388.464 361.343C399.611 361.343 409.929 364.647 418.355 370.261V384.895C400.457 389.796 384.945 399.896 373.833 413.319Z" fill="#AAD682"/>
<path d="M309.191 434.019C304.473 431.429 299.235 429.579 293.657 428.639V376.993C296.637 376.492 299.707 376.231 302.841 376.231C317.776 376.231 331.221 382.163 340.619 391.635C343.921 383.863 349.343 377.085 356.219 371.925L373.833 413.319C373.283 413.984 372.744 414.655 372.215 415.336C365.413 410.196 356.744 407.116 347.304 407.116C329.155 407.116 313.859 418.496 309.191 434.019M213.011 414.432L238.005 355.697L238.007 355.696L243.717 342.276L238.007 355.696L238.005 355.697L231.845 370.176H231.843L213.011 414.432" fill="#B7E394"/>
<path d="M251.179 441.336C245.54 429.292 232.651 420.872 217.648 420.872C217.019 420.872 216.392 420.888 215.769 420.917L213.011 414.432L231.843 370.176H231.845L238.005 355.697L238.007 355.696L243.717 342.276L238.007 355.696C241.6 352.391 245.141 349.025 248.653 345.632C261.539 355.128 271.159 368.299 275.692 383.447C281.093 380.312 287.163 378.084 293.657 376.993V428.639C290.907 428.176 288.073 427.933 285.179 427.933C271.839 427.933 259.789 433.071 251.179 441.336" fill="#AAD682"/>
<path d="M48.8733 429.043C47.6707 424.579 47.032 419.908 47.032 415.096C47.032 383.6 74.4346 358.065 108.241 358.065C113.009 358.065 117.652 358.573 122.107 359.536C122.668 364.044 123.328 368.523 124.084 372.967C88.4107 375.335 58.8333 398.229 48.8733 429.043" fill="#EEF9F6"/>
<path d="M146.543 374.227C141.259 373.268 135.796 372.764 130.211 372.764C128.152 372.764 126.107 372.833 124.084 372.967C123.328 368.523 122.668 364.044 122.107 359.536C126.183 360.416 130.1 361.675 133.819 363.269C140.784 353.288 150.285 344.983 161.472 339.148L146.543 374.227" fill="#ECF7DF"/>
<path d="M607.364 361.544V359.391C609.209 354.861 611.112 350.356 613.072 345.875C613.423 345.793 613.777 345.713 614.131 345.637L608.671 358.469L608.652 358.515L607.364 361.544" fill="#CCEDE5"/>
<path d="M576.824 433.307L557.761 388.513C560.631 389.767 563.404 391.177 566.072 392.733C569.74 373.597 583.297 357.655 601.643 349.656C603.539 352.928 605.435 356.201 607.329 359.472L607.341 359.444L607.364 359.391V361.544L599.799 379.32L599.797 379.321L576.824 433.307" fill="#C1E6DB"/>
<path d="M607.341 359.444V347.481C609.213 346.864 611.123 346.328 613.072 345.875C611.112 350.356 609.209 354.861 607.364 359.391L607.341 359.444" fill="#DDF3ED"/>
<path d="M607.329 359.472C605.435 356.201 603.539 352.928 601.643 349.656C603.495 348.849 605.397 348.121 607.341 347.481V359.444L607.329 359.472Z" fill="#D1EFE6"/>
<path d="M238.007 355.696L243.717 342.276C245.409 343.336 247.057 344.457 248.653 345.632C245.141 349.025 241.6 352.391 238.007 355.696Z" fill="#BCE194"/>
<path d="M575.193 437.136C567.447 427.353 554.991 421.007 540.94 421.007C533.615 421.007 526.724 422.729 520.709 425.767C518.669 422.076 516.336 418.549 513.736 415.213V394.047C515.415 389.927 517.161 385.835 518.976 381.773C520.756 381.661 522.552 381.604 524.361 381.604C536.304 381.604 547.623 384.08 557.761 388.513L576.824 433.307L575.193 437.136M470.857 385.824H470.856L471.612 384.049L471.613 384.047L480.017 364.3L480.035 364.256L481.779 360.159L480.035 364.256L480.017 364.3L471.613 384.047L471.612 384.049L470.857 385.824" fill="#B7E394"/>
<path d="M513.736 415.213C503.176 401.665 488.236 391.267 470.857 385.824L471.612 384.049L471.613 384.047L480.017 364.3L480.035 364.256L481.779 360.159L480.035 364.256L480.017 364.3L471.613 384.047C476.929 379.159 482.093 374.092 487.237 369.04C488.228 368.069 489.217 367.097 490.207 366.127C495.699 371.135 499.733 377.528 501.66 384.697C503.563 384.165 505.493 383.699 507.453 383.299C509.539 386.9 511.625 390.501 513.712 394.103L513.72 394.084L513.736 394.047V415.213" fill="#AAD682"/>
<path d="M513.72 394.084V382.268C515.456 382.049 517.208 381.884 518.976 381.773C517.161 385.835 515.415 389.927 513.736 394.047L513.72 394.084ZM471.613 384.047L480.017 364.3L480.035 364.256L481.779 360.159L480.035 364.256L480.017 364.3L471.613 384.047Z" fill="#C7E9A6"/>
<path d="M513.712 394.103C511.625 390.501 509.539 386.9 507.453 383.299C509.513 382.879 511.604 382.535 513.72 382.268V394.084L513.712 394.103ZM471.613 384.047L480.017 364.3L480.035 364.256L481.779 360.159C484.853 361.817 487.684 363.825 490.207 366.127C489.217 367.097 488.228 368.069 487.237 369.04C482.093 374.092 476.929 379.159 471.613 384.047Z" fill="#BCE194"/>
<path d="M208.813 421.876C202.747 408.104 192.633 396.277 179.851 387.683C181.392 384.493 182.985 381.327 184.628 378.188C184.407 378.612 200.621 391.729 202.12 393.067C203.055 393.9 204.112 395.173 205.249 396.192L178.213 332.657L215.769 420.917C213.384 421.031 211.059 421.357 208.813 421.876" fill="#B7E394"/>
<path d="M205.249 396.192C204.112 395.173 203.055 393.9 202.12 393.067C200.621 391.729 184.407 378.612 184.628 378.188C182.985 381.327 181.392 384.493 179.851 387.683C177.089 385.827 174.203 384.121 171.208 382.579V353.341L171.221 353.313C173.364 348.891 175.507 344.467 177.648 340.044C180.08 343.064 182.511 346.085 184.943 349.104C185.14 349.348 185.333 349.595 185.529 349.848L178.213 332.657L205.249 396.192" fill="#C7E9A6"/>
<path d="M171.208 382.579C163.619 378.675 155.325 375.82 146.543 374.227L161.472 339.148L157.472 348.545C158.908 347.199 160.344 345.853 161.781 344.507C163.373 343.012 164.973 341.512 166.295 339.775C168.333 344.137 169.98 348.684 171.208 353.341V382.579Z" fill="#BCE194"/>
<path d="M171.208 353.341V334.86C173.492 334.028 175.831 333.291 178.213 332.657L185.529 349.848C185.333 349.595 185.14 349.348 184.943 349.104C182.511 346.085 180.08 343.064 177.648 340.044C175.507 344.467 173.364 348.891 171.221 353.313L171.208 353.341M157.472 348.545L161.472 339.148L157.472 348.545Z" fill="#E0F3D1"/>
<path d="M171.208 353.341C169.98 348.684 168.333 344.137 166.295 339.775C164.973 341.512 163.373 343.012 161.781 344.507C160.344 345.853 158.908 347.199 157.472 348.545L161.472 339.148C164.592 337.521 167.843 336.085 171.208 334.86V353.341" fill="#D9F0BF"/>
<path d="M575.193 437.136L599.797 379.321L599.799 379.32L608.652 358.515L608.671 358.469L614.131 345.637L608.671 358.469L608.652 358.515L599.799 379.32L599.797 379.321L594.885 390.867H594.883L575.193 437.136ZM658.928 430.309C655.097 424.971 650.059 420.447 644.176 417.08V389.855C649.243 377.423 654.899 365.232 661.123 353.337C660.884 353.795 675.792 365.952 681.332 370.545C682.361 371.988 683.323 373.475 684.215 375.001C684.659 374.827 685.105 374.657 685.555 374.493C686.081 375.041 686.627 375.592 687.187 376.093L686.38 374.199L703.704 414.913C703.548 414.912 703.393 414.912 703.237 414.912C686.288 414.912 670.799 420.717 658.928 430.309" fill="#B7E394"/>
<path d="M575.455 437.469C575.368 437.357 575.281 437.247 575.193 437.136L594.883 390.867H594.885L599.797 379.321L599.799 379.32L608.652 358.515L608.671 358.469L614.131 345.637L608.671 358.469L608.652 358.515L599.799 379.32C605.4 374.171 610.84 368.832 616.26 363.509C618.936 360.881 621.611 358.255 624.285 355.628C630.909 367.057 637.531 378.484 644.151 389.915L644.16 389.895L644.176 389.855V417.08C636.929 412.933 628.403 410.541 619.273 410.541C599.615 410.541 582.736 421.637 575.455 437.469" fill="#AAD682"/>
<path d="M644.16 389.895V345.937C659.589 349.595 672.76 358.524 681.332 370.545C675.792 365.952 660.884 353.795 661.123 353.337C654.899 365.232 649.243 377.423 644.176 389.855L644.16 389.895ZM599.799 379.32L608.652 358.515L608.671 358.469L614.131 345.637L608.671 358.469L608.652 358.515L599.799 379.32ZM687.187 376.093C686.627 375.592 686.081 375.041 685.555 374.493C685.829 374.393 686.104 374.295 686.38 374.199L687.187 376.093Z" fill="#C7E9A6"/>
<path d="M644.151 389.915C637.531 378.484 630.909 367.057 624.285 355.628C621.611 358.255 618.936 360.881 616.26 363.509C610.84 368.832 605.4 374.171 599.799 379.32L608.652 358.515L608.671 358.469L614.131 345.637C618.741 344.643 623.547 344.117 628.481 344.117C633.893 344.117 639.145 344.749 644.16 345.937V389.895L644.151 389.915" fill="#BCE194"/>
<path d="M745.397 472.271H728.113L708.407 425.964C709.679 422.487 710.891 418.976 712.037 415.44C734.837 418.199 754.073 431.532 763.896 449.987C759.811 458.791 753.405 466.44 745.397 472.271Z" fill="#F6FCFA"/>
<path d="M708.407 425.964L703.704 414.913C706.527 414.931 709.307 415.109 712.037 415.44C710.891 418.976 709.679 422.487 708.407 425.964Z" fill="#F5FBED"/>
<path d="M435.751 468.32L418.355 446.613V384.895C426.177 382.753 434.455 381.604 443.021 381.604C452.755 381.604 462.113 383.087 470.856 385.824L435.751 468.32Z" fill="#D7EFC3"/>
<path d="M391.275 454.305L373.833 413.319C384.945 399.896 400.457 389.796 418.355 384.895V446.613L407.896 433.565L391.275 454.305" fill="#D1E8B9"/>
<path d="M376.876 472.271H293.657V428.639C299.235 429.579 304.473 431.429 309.191 434.019C313.859 418.496 329.155 407.116 347.304 407.116C356.744 407.116 365.413 410.196 372.215 415.336C372.744 414.655 373.283 413.984 373.833 413.319L391.275 454.305L376.876 472.271" fill="#D7EFC3"/>
<path d="M293.657 472.271H237.623L215.769 420.917C216.392 420.888 217.019 420.872 217.648 420.872C232.651 420.872 245.54 429.292 251.179 441.336C259.789 433.071 271.839 427.933 285.179 427.933C288.073 427.933 290.907 428.176 293.657 428.639V472.271Z" fill="#D1E8B9"/>
<path d="M104.916 472.049C77.7507 470.695 55.2934 452.837 48.8734 429.043C58.8334 398.229 88.4107 375.335 124.084 372.967C126.111 384.875 128.829 396.541 132.2 407.933L104.916 472.049Z" fill="#F6FCFA"/>
<path d="M132.2 407.933C128.829 396.541 126.111 384.875 124.084 372.967C126.107 372.833 128.152 372.764 130.211 372.764C135.796 372.764 141.259 373.268 146.543 374.227L143.131 382.248L143.116 382.283L136.111 398.745L136.109 398.747L132.2 407.933" fill="#F5FBED"/>
<path d="M560.243 472.271H513.736V415.213C516.336 418.549 518.669 422.076 520.709 425.767C526.724 422.729 533.615 421.007 540.94 421.007C554.991 421.007 567.447 427.353 575.193 437.136L560.243 472.271ZM435.751 468.32L470.856 385.824H470.857L466.949 395.008H466.948L435.751 468.32" fill="#D7EFC3"/>
<path d="M513.736 472.271H438.917L435.751 468.32L466.948 395.008H466.949L470.857 385.824C488.236 391.267 503.176 401.665 513.736 415.213V472.271Z" fill="#D1E8B9"/>
<path d="M237.623 472.271H171.221V407.079C173.892 400.525 176.769 394.055 179.851 387.683C192.633 396.277 202.747 408.104 208.813 421.876C211.059 421.357 213.384 421.031 215.769 420.917L237.623 472.271M104.916 472.049L136.109 398.747L136.111 398.745L143.116 382.283L143.131 382.248L146.543 374.227L143.131 382.248L143.116 382.283L136.111 398.745L136.109 398.747L132.224 407.88H132.223L104.916 472.049" fill="#D7EFC3"/>
<path d="M171.221 472.271H108.241V472.132C107.125 472.132 106.016 472.104 104.916 472.049L132.223 407.88H132.224L136.109 398.747L136.111 398.745L143.116 382.283L143.131 382.248L146.543 374.227L143.131 382.248L143.116 382.283L136.111 398.745C140.543 394.669 144.847 390.447 149.135 386.236C151.252 384.156 153.368 382.079 155.484 379.999C160.725 389.041 165.963 398.084 171.201 407.127L171.208 407.109L171.221 407.079V472.271" fill="#D1E8B9"/>
<path d="M171.208 407.109V382.579C174.203 384.121 177.089 385.827 179.851 387.683C176.769 394.055 173.892 400.525 171.221 407.079L171.208 407.109M136.111 398.745L143.116 382.283L143.131 382.248L146.543 374.227L143.131 382.248L143.116 382.283L136.111 398.745Z" fill="#DFF2CD"/>
<path d="M171.201 407.127C165.963 398.084 160.725 389.041 155.484 379.999C153.368 382.079 151.252 384.156 149.135 386.236C144.847 390.447 140.543 394.669 136.111 398.745L143.116 382.283L143.131 382.248L146.543 374.227C155.325 375.82 163.619 378.675 171.208 382.579V407.109L171.201 407.127" fill="#DBEFC3"/>
<path d="M728.113 472.271H644.176V417.08C650.059 420.447 655.097 424.971 658.928 430.309C670.799 420.717 686.288 414.912 703.237 414.912C703.393 414.912 703.548 414.912 703.704 414.913L728.113 472.271Z" fill="#D7EFC3"/>
<path d="M644.176 472.271H560.243L575.193 437.136C575.281 437.247 575.368 437.357 575.455 437.469C582.736 421.637 599.615 410.541 619.273 410.541C628.403 410.541 636.929 412.933 644.176 417.08V472.271" fill="#D1E8B9"/>
<path d="M93.5907 457.111H101.203V472.331H93.5907V457.111Z" fill="#0A151D"/>
<path d="M117.817 464.675H76.9773C75.6493 464.675 74.6947 463.688 74.924 462.677L75.0346 462.367L84.1627 443.315H80.552C79.4546 443.315 78.6693 442.499 78.86 441.665L78.9506 441.413L88.7293 420.996H86.676C85.9786 420.996 85.4786 420.48 85.6013 419.949L85.6573 419.787L96.3787 397.405L96.5733 397.14C96.7866 396.937 97.092 396.839 97.3973 396.839C97.8173 396.839 98.2333 397.028 98.416 397.405L109.137 419.787C109.415 420.369 108.888 420.996 108.119 420.996H106.069L115.844 441.413C116.284 442.328 115.455 443.315 114.243 443.315H110.632L119.756 462.367C120.291 463.477 119.284 464.675 117.817 464.675" fill="#264D6F"/>
<path d="M117.817 464.675H97.3973V396.839C97.8173 396.839 98.2333 397.028 98.416 397.405L109.137 419.787C109.415 420.369 108.888 420.996 108.119 420.996H106.069L115.844 441.413C116.284 442.328 115.455 443.315 114.243 443.315H110.632L119.756 462.367C120.291 463.477 119.284 464.675 117.817 464.675" fill="#1A3C55"/>
<path d="M119.333 454.476H128.261V472.331H119.333V454.476Z" fill="#0A151D"/>
<path d="M147.753 463.349H99.844C98.2867 463.349 97.1667 462.192 97.436 461.007C97.468 460.885 97.5093 460.764 97.5653 460.643L108.273 438.293H104.037C102.751 438.293 101.829 437.336 102.053 436.36L102.16 436.061L113.629 412.112H111.221C110.403 412.112 109.817 411.508 109.961 410.884L110.027 410.695L122.604 384.437C122.659 384.316 122.739 384.215 122.832 384.127C123.083 383.889 123.44 383.773 123.799 383.773C124.291 383.773 124.78 383.996 124.993 384.437L137.571 410.695C137.896 411.377 137.277 412.112 136.375 412.112H133.972L145.437 436.061C145.953 437.136 144.981 438.293 143.559 438.293H139.323L150.027 460.643C150.653 461.945 149.473 463.349 147.753 463.349" fill="#264D6F"/>
<path d="M147.753 463.349H123.799V383.773C124.291 383.773 124.78 383.996 124.993 384.437L137.571 410.695C137.896 411.377 137.277 412.112 136.375 412.112H133.972L145.437 436.061C145.953 437.136 144.981 438.293 143.559 438.293H139.323L150.027 460.643C150.653 461.945 149.473 463.349 147.753 463.349" fill="#1A3C55"/>
<path d="M192.649 447.435H205.099V472.331H192.649V447.435Z" fill="#0A151D"/>
<path d="M232.277 459.807H165.475C163.303 459.807 161.74 458.193 162.116 456.54C162.161 456.371 162.22 456.203 162.297 456.033L177.228 424.868H171.321C169.527 424.868 168.243 423.533 168.553 422.172C168.587 422.029 168.632 421.893 168.703 421.756L184.697 388.361H181.339C180.197 388.361 179.38 387.52 179.581 386.651L179.672 386.384L197.209 349.773C197.287 349.605 197.397 349.463 197.527 349.34C197.877 349.009 198.376 348.847 198.876 348.847C199.563 348.847 200.244 349.157 200.541 349.773L218.079 386.384C218.533 387.337 217.671 388.361 216.413 388.361H213.061L229.048 421.756C229.768 423.255 228.413 424.868 226.429 424.868H220.523L235.448 456.033C236.323 457.849 234.676 459.807 232.277 459.807" fill="#264D6F"/>
<path d="M232.277 459.807H198.876V348.847C199.563 348.847 200.244 349.157 200.541 349.773L218.079 386.384C218.533 387.337 217.671 388.361 216.413 388.361H213.061L229.048 421.756C229.768 423.255 228.413 424.868 226.429 424.868H220.523L235.448 456.033C236.323 457.849 234.676 459.807 232.277 459.807Z" fill="#1A3C55"/>
<path d="M242.096 453.659H251.433V472.331H242.096V453.659Z" fill="#0A151D"/>
<path d="M271.817 462.937H221.713C220.085 462.937 218.913 461.727 219.195 460.487C219.229 460.361 219.273 460.235 219.331 460.108L230.529 436.733H226.1C224.753 436.733 223.789 435.732 224.024 434.711L224.135 434.4L236.131 409.353H233.612C232.757 409.353 232.144 408.72 232.295 408.069L232.363 407.869L245.516 380.411C245.575 380.284 245.657 380.177 245.755 380.084C246.016 379.837 246.391 379.715 246.765 379.715C247.281 379.715 247.791 379.949 248.015 380.411L261.168 407.869C261.508 408.584 260.863 409.353 259.919 409.353H257.404L269.396 434.4C269.936 435.523 268.92 436.733 267.431 436.733H263.001L274.195 460.108C274.852 461.469 273.617 462.937 271.817 462.937" fill="#264D6F"/>
<path d="M271.817 462.937H246.765V379.715C247.281 379.715 247.791 379.949 248.015 380.411L261.168 407.869C261.508 408.584 260.863 409.353 259.919 409.353H257.404L269.396 434.4C269.936 435.523 268.92 436.733 267.431 436.733H263.001L274.195 460.108C274.852 461.469 273.617 462.937 271.817 462.937" fill="#1A3C55"/>
<path d="M320.663 453.659H330V472.331H320.663V453.659Z" fill="#0A151D"/>
<path d="M350.384 462.937H300.281C298.652 462.937 297.48 461.727 297.761 460.487C297.796 460.361 276.043 466.302 276.1 466.175L309.096 436.733H304.667C303.32 436.733 302.357 435.732 302.591 434.711L302.703 434.4L314.699 409.353H312.179C311.324 409.353 310.711 408.72 310.861 408.069L310.929 407.869L324.083 380.411C324.141 380.284 324.224 380.177 324.321 380.084C324.584 379.837 324.959 379.715 325.333 379.715C325.848 379.715 326.359 379.949 326.583 380.411L339.736 407.869C340.076 408.584 339.429 409.353 338.485 409.353H335.972L347.963 434.4C348.503 435.523 347.487 436.733 345.999 436.733H341.568L352.763 460.108C353.419 461.469 352.184 462.937 350.384 462.937" fill="#264D6F"/>
<path d="M350.384 462.937H325.333V379.715C325.848 379.715 326.359 379.949 326.583 380.411L339.736 407.869C340.076 408.584 339.429 409.353 338.485 409.353H335.972L347.963 434.4C348.503 435.523 347.487 436.733 345.999 436.733H341.568L352.763 460.108C353.419 461.469 352.184 462.937 350.384 462.937" fill="#1A3C55"/>
<path d="M392.443 448.557H404.331V472.331H392.443V448.557Z" fill="#0A151D"/>
<path d="M430.284 460.371H366.492C364.417 460.371 362.925 458.829 363.285 457.251C363.328 457.089 363.384 456.929 363.457 456.768L377.716 427.008H372.076C370.361 427.008 369.135 425.732 369.432 424.432C369.463 424.296 369.507 424.165 369.575 424.036L384.848 392.145H381.641C380.552 392.145 379.772 391.341 379.963 390.511L380.051 390.257L396.797 355.296C396.871 355.136 396.977 354.999 397.1 354.881C397.435 354.565 397.912 354.411 398.388 354.411C399.044 354.411 399.695 354.708 399.98 355.296L416.727 390.257C417.159 391.168 416.336 392.145 415.135 392.145H411.935L427.203 424.036C427.888 425.467 426.595 427.008 424.701 427.008H419.06L433.313 456.768C434.147 458.501 432.576 460.371 430.284 460.371" fill="#264D6F"/>
<path d="M430.284 460.371H398.388V354.411C399.044 354.411 399.695 354.708 399.98 355.296L416.727 390.257C417.159 391.168 416.336 392.145 415.135 392.145H411.935L427.203 424.036C427.888 425.467 426.595 427.008 424.701 427.008H419.06L433.313 456.768C434.147 458.501 432.576 460.371 430.284 460.371" fill="#1A3C55"/>
<path d="M467.456 457.78H474.732V472.331H467.456V457.78Z" fill="#0A151D"/>
<path d="M490.617 465.011H451.572C450.303 465.011 449.388 464.068 449.608 463.101L449.715 462.807L458.441 444.589H454.989C453.94 444.589 453.189 443.808 453.371 443.013L453.459 442.771L462.808 423.251H460.844C460.177 423.251 459.7 422.759 459.816 422.251L459.869 422.096L470.12 400.696L470.307 400.443C470.511 400.251 470.803 400.155 471.093 400.155C471.496 400.155 471.893 400.337 472.068 400.696L482.319 422.096C482.584 422.652 482.08 423.251 481.345 423.251H479.385L488.731 442.771C489.151 443.645 488.36 444.589 487.2 444.589H483.748L492.471 462.807C492.981 463.865 492.02 465.011 490.617 465.011" fill="#264D6F"/>
<path d="M490.617 465.011H471.093V400.155C471.496 400.155 471.893 400.337 472.068 400.696L482.319 422.096C482.584 422.652 482.08 423.251 481.345 423.251H479.385L488.731 442.771C489.151 443.645 488.36 444.589 487.2 444.589H483.748L492.471 462.807C492.981 463.865 492.02 465.011 490.617 465.011" fill="#1A3C55"/>
<path d="M515.525 452.835H525.275V472.331H515.525V452.835Z" fill="#0A151D"/>
<path d="M546.559 462.524H494.244C492.543 462.524 491.319 461.259 491.613 459.965C491.648 459.832 491.695 459.7 491.756 459.569L503.448 435.163H498.823C497.417 435.163 496.412 434.117 496.655 433.051L496.772 432.725L509.297 406.573H506.667C505.773 406.573 505.135 405.913 505.292 405.233L505.363 405.025L519.096 376.355C519.156 376.223 519.244 376.111 519.345 376.015C519.619 375.755 520.011 375.628 520.401 375.628C520.939 375.628 521.473 375.872 521.705 376.355L535.439 405.025C535.795 405.771 535.12 406.573 534.135 406.573H531.509L544.031 432.725C544.593 433.899 543.533 435.163 541.98 435.163H537.353L549.04 459.569C549.727 460.989 548.436 462.524 546.559 462.524" fill="#264D6F"/>
<path d="M546.559 462.524H520.401V375.628C520.939 375.628 521.473 375.872 521.705 376.355L535.439 405.025C535.795 405.771 535.12 406.573 534.135 406.573H531.509L544.031 432.725C544.593 433.899 543.533 435.163 541.98 435.163H537.353L549.04 459.569C549.727 460.989 548.436 462.524 546.559 462.524" fill="#1A3C55"/>
<path d="M555.115 444.077H569.244V472.331H555.115V444.077Z" fill="#0A151D"/>
<path d="M600.089 458.117H524.273C521.809 458.117 520.036 456.285 520.463 454.409C520.513 454.219 520.58 454.028 520.668 453.836L537.613 418.467H530.911C528.872 418.467 527.416 416.951 527.768 415.405C527.805 415.244 527.857 415.088 527.937 414.935L546.091 377.033H542.277C540.983 377.033 540.056 376.079 540.284 375.092L540.387 374.791L560.291 333.241C560.379 333.049 560.504 332.887 560.651 332.748C561.048 332.372 561.615 332.188 562.181 332.188C562.961 332.188 563.733 332.541 564.072 333.241L583.976 374.791C584.489 375.872 583.512 377.033 582.084 377.033H578.28L596.424 414.935C597.241 416.635 595.703 418.467 593.452 418.467H586.749L603.687 453.836C604.68 455.896 602.812 458.117 600.089 458.117" fill="#264D6F"/>
<path d="M600.089 458.117H562.181V332.188C562.961 332.188 563.733 332.541 564.072 333.241L583.976 374.791C584.489 375.872 583.512 377.033 582.084 377.033H578.28L596.424 414.935C597.241 416.635 595.703 418.467 593.452 418.467H586.749L603.687 453.836C604.68 455.896 602.812 458.117 600.089 458.117" fill="#1A3C55"/>
<path d="M603.555 449.633H614.907V472.331H603.555V449.633Z" fill="#0A151D"/>
<path d="M639.687 460.913H578.777C576.797 460.913 575.372 459.44 575.716 457.933C575.757 457.78 575.811 457.627 575.881 457.473L589.495 429.057H584.109C582.473 429.057 581.303 427.84 581.587 426.599C581.615 426.469 581.656 426.344 581.721 426.22L596.305 395.772H593.243C592.203 395.772 591.457 395.004 591.641 394.211L591.723 393.969L607.712 360.588C607.784 360.435 607.884 360.305 608.003 360.193C608.321 359.892 608.776 359.744 609.232 359.744C609.859 359.744 610.48 360.028 610.752 360.588L626.741 393.969C627.153 394.839 626.369 395.772 625.221 395.772H622.165L636.743 426.22C637.399 427.585 636.163 429.057 634.355 429.057H628.969L642.577 457.473C643.373 459.128 641.872 460.913 639.687 460.913" fill="#264D6F"/>
<path d="M639.687 460.913H609.232V359.744C609.859 359.744 610.48 360.028 610.752 360.588L626.741 393.969C627.153 394.839 626.369 395.772 625.221 395.772H622.165L636.743 426.22C637.399 427.585 636.163 429.057 634.355 429.057H628.969L642.577 457.473C643.373 459.128 641.872 460.913 639.687 460.913" fill="#1A3C55"/>
<path d="M674.54 455.307H683.053V472.331H674.54V455.307Z" fill="#0A151D"/>
<path d="M701.639 463.767H655.956C654.472 463.767 653.403 462.663 653.66 461.532L653.784 461.187L663.993 439.875H659.956C658.727 439.875 657.849 438.961 658.063 438.029L658.164 437.748L669.101 414.911H666.805C666.025 414.911 665.467 414.333 665.603 413.74L665.665 413.557L677.657 388.523L677.875 388.225C678.115 387.999 678.456 387.888 678.797 387.888C679.267 387.888 679.733 388.101 679.936 388.523L691.929 413.557C692.24 414.209 691.649 414.911 690.791 414.911H688.497L699.431 437.748C699.924 438.771 698.996 439.875 697.64 439.875H693.6L703.807 461.187C704.405 462.428 703.279 463.767 701.639 463.767" fill="#264D6F"/>
<path d="M701.639 463.767H678.797V387.888C679.267 387.888 679.733 388.101 679.936 388.523L691.929 413.557C692.24 414.209 691.649 414.911 690.791 414.911H688.497L699.431 437.748C699.924 438.771 698.996 439.875 697.64 439.875H693.6L703.807 461.187C704.405 462.428 703.279 463.767 701.639 463.767" fill="#1A3C55"/>
<path d="M105.491 459.693H111.811V472.331H105.491V459.693Z" fill="#653E25"/>
<path d="M125.608 465.973H91.6947C90.5907 465.973 89.7987 465.153 89.9893 464.313L90.0813 464.057L97.6613 448.236H94.6627C93.7507 448.236 93.0987 447.559 93.2573 446.867L93.3333 446.656L101.452 429.703H99.748C99.1693 429.703 98.7547 429.275 98.856 428.833L98.9013 428.699L107.805 410.113L107.967 409.892C108.144 409.724 108.397 409.641 108.651 409.641C109 409.641 109.345 409.8 109.497 410.113L118.4 428.699C118.631 429.183 118.192 429.703 117.555 429.703H115.852L123.969 446.656C124.335 447.417 123.647 448.236 122.639 448.236H119.641L127.217 464.057C127.661 464.979 126.825 465.973 125.608 465.973" fill="#6BA52E"/>
<path d="M125.608 465.973H108.651V409.641C109 409.641 109.345 409.8 109.497 410.113L118.4 428.699C118.631 429.183 118.192 429.703 117.555 429.703H115.852L123.969 446.656C124.335 447.417 123.647 448.236 122.639 448.236H119.641L127.217 464.057C127.661 464.979 126.825 465.973 125.608 465.973" fill="#537F2B"/>
<path d="M63.2853 462.173H68.3653V472.331H63.2853V462.173Z" fill="#653E25"/>
<path d="M79.4547 467.221H52.1973C51.3107 467.221 50.6733 466.563 50.8267 465.888L50.9 465.681L56.9933 452.965H54.5827C53.8507 452.965 53.3267 452.42 53.4533 451.864L53.5147 451.695L60.04 438.069H58.6707C58.204 438.069 57.8707 437.725 57.9533 437.371L57.9907 437.261L65.1467 422.324L65.276 422.147C65.4187 422.012 65.6213 421.945 65.8253 421.945C66.1067 421.945 66.384 422.073 66.5053 422.324L73.6613 437.261C73.8467 437.651 73.4947 438.069 72.9813 438.069H71.6133L78.1373 451.695C78.4307 452.307 77.8773 452.965 77.068 452.965H74.6587L80.748 465.681C81.1053 466.421 80.4333 467.221 79.4547 467.221" fill="#6BA52E"/>
<path d="M79.4547 467.221H65.8253V421.945C66.1067 421.945 66.384 422.073 66.5053 422.324L73.6613 437.261C73.8466 437.651 73.4947 438.069 72.9813 438.069H71.6133L78.1373 451.695C78.4307 452.307 77.8773 452.965 77.068 452.965H74.6587L80.748 465.681C81.1053 466.421 80.4333 467.221 79.4547 467.221" fill="#537F2B"/>
<path d="M142.381 454.173H151.461V472.331H142.381V454.173Z" fill="#653E25"/>
<path d="M171.283 463.196H122.561C120.977 463.196 119.837 462.02 120.111 460.813C120.144 460.691 120.187 460.568 120.244 460.445L131.133 437.715H126.825C125.516 437.715 124.58 436.741 124.807 435.748L124.916 435.445L136.58 411.088H134.131C133.299 411.088 132.703 410.473 132.849 409.84L132.916 409.647L145.707 382.945C145.763 382.821 145.844 382.717 145.939 382.628C146.193 382.387 146.557 382.268 146.923 382.268C147.423 382.268 147.92 382.496 148.137 382.945L160.927 409.647C161.259 410.341 160.629 411.088 159.712 411.088H157.268L168.928 435.445C169.453 436.537 168.465 437.715 167.017 437.715H162.711L173.595 460.445C174.233 461.768 173.033 463.196 171.283 463.196" fill="#6BA52E"/>
<path d="M171.283 463.196H146.923V382.268C147.423 382.268 147.92 382.496 148.137 382.945L160.927 409.647C161.259 410.341 160.629 411.088 159.712 411.088H157.268L168.928 435.445C169.453 436.537 168.465 437.715 167.017 437.715H162.711L173.595 460.445C174.233 461.768 173.033 463.196 171.283 463.196" fill="#537F2B"/>
<path d="M220.548 454.173H229.628V472.331H220.548V454.173Z" fill="#653E25"/>
<path d="M249.451 463.196H200.728C199.144 463.196 198.004 462.02 198.279 460.813C198.312 460.691 198.353 460.568 198.411 460.445L209.3 437.715H204.992C203.683 437.715 202.747 436.741 202.973 435.748L203.083 435.445L214.748 411.088H212.299C211.465 411.088 210.869 410.473 211.016 409.84L211.083 409.647L223.873 382.945C223.931 382.821 224.011 382.717 224.105 382.628C224.36 382.387 224.725 382.268 225.089 382.268C225.591 382.268 226.087 382.496 226.304 382.945L239.095 409.647C239.425 410.341 238.796 411.088 237.879 411.088H235.435L247.095 435.445C247.62 436.537 246.632 437.715 245.185 437.715H240.877L251.761 460.445C252.4 461.768 251.2 463.196 249.451 463.196Z" fill="#6BA52E"/>
<path d="M249.451 463.196H225.089V382.268C225.591 382.268 226.087 382.496 226.304 382.945L239.095 409.647C239.425 410.341 238.796 411.088 237.879 411.088H235.435L247.095 435.445C247.62 436.537 246.632 437.715 245.185 437.715H240.877L251.761 460.445C252.4 461.768 251.2 463.196 249.451 463.196Z" fill="#537F2B"/>
<path d="M279.369 458.712H286.179V472.331H279.369V458.712Z" fill="#653E25"/>
<path d="M301.047 465.48H264.504C263.316 465.48 262.461 464.596 262.667 463.693L262.765 463.417L270.933 446.368H267.703C266.72 446.368 266.017 445.639 266.188 444.893L266.269 444.665L275.019 426.399H273.181C272.557 426.399 272.111 425.937 272.221 425.463L272.271 425.316L281.864 405.289L282.037 405.052C282.229 404.871 282.503 404.783 282.775 404.783C283.151 404.783 283.524 404.952 283.687 405.289L293.28 425.316C293.528 425.837 293.056 426.399 292.368 426.399H290.535L299.28 444.665C299.675 445.485 298.933 446.368 297.848 446.368H294.617L302.781 463.417C303.259 464.409 302.359 465.48 301.047 465.48" fill="#6BA52E"/>
<path d="M301.047 465.48H282.775V404.783C283.151 404.783 283.524 404.952 283.687 405.289L293.28 425.316C293.528 425.837 293.056 426.399 292.368 426.399H290.535L299.28 444.665C299.675 445.485 298.933 446.368 297.848 446.368H294.617L302.781 463.417C303.259 464.409 302.359 465.48 301.047 465.48" fill="#537F2B"/>
<path d="M363.049 456.089H371.171V472.331H363.049V456.089Z" fill="#653E25"/>
<path d="M388.901 464.161H345.321C343.904 464.161 342.885 463.108 343.131 462.028L343.248 461.699L352.989 441.368H349.136C347.964 441.368 347.127 440.497 347.329 439.609L347.427 439.339L357.861 417.552H355.671C354.925 417.552 354.393 417.003 354.524 416.436L354.584 416.261L366.024 392.379L366.231 392.095C366.46 391.879 366.785 391.773 367.111 391.773C367.56 391.773 368.004 391.976 368.199 392.379L379.639 416.261C379.935 416.884 379.372 417.552 378.552 417.552H376.365L386.795 439.339C387.264 440.315 386.38 441.368 385.087 441.368H381.233L390.969 461.699C391.54 462.884 390.467 464.161 388.901 464.161" fill="#6BA52E"/>
<path d="M388.901 464.161H367.111V391.773C367.56 391.773 368.004 391.976 368.199 392.379L379.639 416.261C379.935 416.884 379.372 417.552 378.552 417.552H376.365L386.795 439.339C387.264 440.315 386.38 441.368 385.087 441.368H381.233L390.969 461.699C391.54 462.884 390.467 464.161 388.901 464.161" fill="#537F2B"/>
<path d="M451.305 458.283H458.331V472.331H451.305V458.283Z" fill="#653E25"/>
<path d="M473.667 465.264H435.971C434.745 465.264 433.864 464.353 434.076 463.42L434.179 463.135L442.603 445.549H439.271C438.257 445.549 437.533 444.796 437.708 444.028L437.792 443.793L446.817 424.949H444.923C444.279 424.949 443.817 424.473 443.931 423.983L443.981 423.833L453.877 403.175L454.057 402.928C454.256 402.743 454.536 402.651 454.819 402.651C455.205 402.651 455.591 402.827 455.759 403.175L465.655 423.833C465.911 424.371 465.424 424.949 464.715 424.949H462.823L471.845 443.793C472.251 444.639 471.485 445.549 470.367 445.549H467.035L475.456 463.135C475.949 464.159 475.02 465.264 473.667 465.264" fill="#6BA52E"/>
<path d="M473.667 465.264H454.819V402.651C455.205 402.651 455.591 402.827 455.759 403.175L465.655 423.833C465.911 424.371 465.424 424.949 464.715 424.949H462.823L471.845 443.793C472.251 444.639 471.485 445.549 470.367 445.549H467.035L475.456 463.135C475.949 464.159 475.02 465.264 473.667 465.264" fill="#537F2B"/>
<path d="M539.228 451.857H549.467V472.331H539.228V451.857Z" fill="#653E25"/>
<path d="M571.817 462.031H516.879C515.092 462.031 513.808 460.703 514.117 459.344C514.153 459.205 514.203 459.067 514.265 458.928L526.545 433.299H521.688C520.211 433.299 519.155 432.199 519.412 431.08L519.535 430.739L532.688 403.275H529.925C528.987 403.275 528.315 402.581 528.48 401.867L528.555 401.648L542.979 371.539C543.041 371.401 543.133 371.284 543.24 371.183C543.528 370.911 543.937 370.777 544.348 370.777C544.915 370.777 545.473 371.032 545.719 371.539L560.141 401.648C560.515 402.432 559.805 403.275 558.771 403.275H556.015L569.163 430.739C569.755 431.971 568.641 433.299 567.009 433.299H562.151L574.425 458.928C575.145 460.42 573.791 462.031 571.817 462.031Z" fill="#6BA52E"/>
<path d="M571.817 462.031H544.348V370.777C544.915 370.777 545.473 371.032 545.719 371.539L560.141 401.648C560.515 402.432 559.805 403.275 558.771 403.275H556.015L569.163 430.739C569.755 431.971 568.641 433.299 567.009 433.299H562.151L574.425 458.928C575.145 460.42 573.791 462.031 571.817 462.031Z" fill="#537F2B"/>
<path d="M625.519 455.799H633.785V472.331H625.519V455.799Z" fill="#653E25"/>
<path d="M651.833 464.015H607.472C606.029 464.015 604.991 462.943 605.241 461.844L605.363 461.509L615.276 440.812H611.355C610.161 440.812 609.311 439.925 609.516 439.023L609.615 438.747L620.237 416.569H618.007C617.249 416.569 616.705 416.009 616.84 415.432L616.9 415.256L628.545 390.944L628.757 390.655C628.989 390.436 629.32 390.328 629.652 390.328C630.108 390.328 630.561 390.535 630.759 390.944L642.405 415.256C642.705 415.889 642.133 416.569 641.299 416.569H639.072L649.689 438.747C650.167 439.741 649.267 440.812 647.951 440.812H644.028L653.939 461.509C654.52 462.713 653.425 464.015 651.833 464.015" fill="#6BA52E"/>
<path d="M651.833 464.015H629.652V390.328C630.108 390.328 630.561 390.535 630.759 390.944L642.405 415.256C642.705 415.889 642.133 416.569 641.299 416.569H639.072L649.689 438.747C650.167 439.741 649.267 440.812 647.951 440.812H644.028L653.939 461.509C654.52 462.713 653.425 464.015 651.833 464.015" fill="#537F2B"/>
<path d="M696.444 457.968H703.627V472.331H696.444V457.968Z" fill="#653E25"/>
<path d="M719.307 465.105H680.765C679.512 465.105 678.611 464.175 678.828 463.22L678.932 462.928L687.547 444.949H684.14C683.103 444.949 682.363 444.179 682.541 443.393L682.628 443.153L691.856 423.887H689.919C689.259 423.887 688.788 423.401 688.904 422.9L688.957 422.747L699.075 401.625L699.257 401.373C699.46 401.184 699.748 401.089 700.036 401.089C700.432 401.089 700.824 401.269 700.996 401.625L711.115 422.747C711.376 423.296 710.879 423.887 710.153 423.887H708.219L717.443 443.153C717.859 444.017 717.077 444.949 715.932 444.949H712.525L721.135 462.928C721.64 463.976 720.691 465.105 719.307 465.105" fill="#6BA52E"/>
<path d="M719.307 465.105H700.036V401.089C700.432 401.089 700.824 401.269 700.996 401.625L711.115 422.747C711.376 423.296 710.879 423.887 710.153 423.887H708.219L717.443 443.153C717.859 444.017 717.077 444.949 715.932 444.949H712.525L721.135 462.928C721.64 463.976 720.691 465.105 719.307 465.105" fill="#537F2B"/>
<path d="M735.764 461.404H741.228V472.331H735.764V461.404Z" fill="#653E25"/>
<path d="M753.156 466.835H723.836C722.883 466.835 722.197 466.125 722.363 465.4L722.441 465.179L728.995 451.499H726.403C725.615 451.499 725.051 450.913 725.188 450.315L725.255 450.133L732.273 435.476H730.8C730.299 435.476 729.94 435.105 730.029 434.725L730.068 434.608L737.765 418.539L737.905 418.349C738.059 418.203 738.277 418.133 738.496 418.133C738.799 418.133 739.096 418.269 739.228 418.539L746.924 434.608C747.124 435.027 746.747 435.476 746.195 435.476H744.723L751.74 450.133C752.056 450.791 751.461 451.499 750.591 451.499H747.997L754.548 465.179C754.932 465.975 754.209 466.835 753.156 466.835" fill="#6BA52E"/>
<path d="M753.156 466.835H738.496V418.133C738.799 418.133 739.096 418.269 739.228 418.539L746.924 434.608C747.124 435.027 746.747 435.476 746.195 435.476H744.723L751.74 450.133C752.056 450.791 751.461 451.499 750.591 451.499H747.997L754.548 465.179C754.932 465.975 754.209 466.835 753.156 466.835" fill="#537F2B"/>
<path d="M636.928 472.331L636.927 472.251C636.927 469.872 638.856 467.945 641.235 467.945C642.288 467.945 643.253 468.324 644.001 468.953C644.304 468.751 644.635 468.588 644.987 468.473C644.876 468.092 644.815 467.691 644.815 467.273C644.815 464.895 646.744 462.967 649.123 462.967C649.34 462.967 649.555 462.981 649.763 463.013L649.761 462.967C649.761 460.587 651.691 458.659 654.069 458.659C654.957 458.659 655.781 458.927 656.468 459.388C657.163 458.259 658.407 457.504 659.829 457.504C662.012 457.504 663.78 459.272 663.78 461.453C663.78 462.195 663.572 462.887 663.216 463.479C664.851 463.951 666.048 465.445 666.069 467.227C668.313 467.375 670.088 469.241 670.088 471.523C670.088 471.799 670.06 472.069 670.011 472.331H636.928Z" fill="#597125"/>
<path d="M649.377 472.331C649.141 471.813 649.005 471.24 649.005 470.635C649.005 468.377 650.835 466.548 653.091 466.548C653.483 466.548 653.863 466.607 654.22 466.709C654.823 462.788 658.212 459.784 662.304 459.784C664.455 459.784 666.411 460.616 667.869 461.973C667.796 461.541 667.755 461.097 667.755 460.644C667.755 456.349 671.237 452.867 675.532 452.867C679.827 452.867 683.311 456.349 683.311 460.644L683.304 460.872C683.983 460.656 684.708 460.537 685.46 460.537C689.145 460.537 692.172 463.353 692.509 466.951C693.041 466.695 693.637 466.548 694.267 466.548C696.524 466.548 698.352 468.377 698.352 470.635C698.352 471.24 698.216 471.813 697.98 472.331H649.377" fill="#BFE362"/>
<path d="M677.728 455.559C677.728 456.021 678.101 456.395 678.564 456.395C679.025 456.395 679.4 456.021 679.4 455.559C679.4 455.097 679.025 454.724 678.564 454.724C678.101 454.724 677.728 455.097 677.728 455.559Z" fill="#E5F2A7"/>
<path d="M664.58 462.599C664.58 463.06 664.953 463.435 665.416 463.435C665.876 463.435 666.251 463.06 666.251 462.599C666.251 462.139 665.876 461.763 665.416 461.763C664.953 461.763 664.58 462.139 664.58 462.599Z" fill="#E5F2A7"/>
<path d="M676.487 455.112C676.487 455.327 676.661 455.501 676.876 455.501C677.091 455.501 677.264 455.327 677.264 455.112C677.264 454.897 677.091 454.724 676.876 454.724C676.661 454.724 676.487 454.897 676.487 455.112Z" fill="#E5F2A7"/>
<path d="M663.324 461.375C663.324 461.589 663.499 461.763 663.713 461.763C663.928 461.763 664.101 461.589 664.101 461.375C664.101 461.16 663.928 460.985 663.713 460.985C663.499 460.985 663.324 461.16 663.324 461.375Z" fill="#E5F2A7"/>
<path d="M680.311 457.776C680.311 457.991 680.483 458.165 680.699 458.165C680.913 458.165 681.088 457.991 681.088 457.776C681.088 457.561 680.913 457.388 680.699 457.388C680.483 457.388 680.311 457.561 680.311 457.776Z" fill="#E5F2A7"/>
<path d="M686.887 461.763C686.887 461.977 687.06 462.152 687.275 462.152C687.489 462.152 687.664 461.977 687.664 461.763C687.664 461.548 687.489 461.375 687.275 461.375C687.06 461.375 686.887 461.548 686.887 461.763Z" fill="#E5F2A7"/>
<path d="M683.18 462.384C683.18 462.599 683.355 462.772 683.569 462.772C683.784 462.772 683.959 462.599 683.959 462.384C683.959 462.169 683.784 461.995 683.569 461.995C683.355 461.995 683.18 462.169 683.18 462.384Z" fill="#E5F2A7"/>
<path d="M677.629 457.248C677.629 457.589 677.907 457.867 678.249 457.867C678.592 457.867 678.869 457.589 678.869 457.248C678.869 456.904 678.592 456.627 678.249 456.627C677.907 456.627 677.629 456.904 677.629 457.248Z" fill="#E5F2A7"/>
<path d="M684.14 461.763C684.14 462.105 684.419 462.384 684.76 462.384C685.103 462.384 685.38 462.105 685.38 461.763C685.38 461.42 685.103 461.143 684.76 461.143C684.419 461.143 684.14 461.42 684.14 461.763Z" fill="#E5F2A7"/>
<path d="M176.884 468.215C176.917 468.084 176.937 467.949 176.937 467.808C176.937 466.919 176.216 466.197 175.327 466.197C174.727 466.197 174.203 466.528 173.925 467.017C173.424 465.988 172.367 465.279 171.145 465.279C170.465 465.279 169.839 465.499 169.328 465.868C168.808 465.192 167.989 464.753 167.069 464.753C166.483 464.753 165.939 464.932 165.485 465.236C165.011 464.84 164.461 464.532 163.86 464.34C163.884 464.191 163.896 464.037 163.896 463.883C163.896 462.309 162.621 461.035 161.049 461.035C160.339 461.035 159.688 461.297 159.188 461.728C158.316 460.431 156.836 459.579 155.155 459.579C152.472 459.579 150.297 461.752 150.297 464.435C150.297 464.853 150.351 465.259 150.449 465.645C150.237 465.599 150.017 465.575 149.792 465.575C148.083 465.575 146.697 466.96 146.697 468.669L146.708 468.933C146.207 468.583 145.595 468.373 144.935 468.373C143.225 468.373 141.84 469.759 141.84 471.469C141.84 471.747 141.876 472.015 141.945 472.271H178.631C178.779 471.909 178.861 471.515 178.861 471.1C178.861 469.785 178.04 468.663 176.884 468.215" fill="#4E6F27"/>
<path d="M189.285 472.271C189.364 471.979 189.405 471.675 189.405 471.36C189.405 469.417 187.831 467.841 185.888 467.841C185.137 467.841 184.441 468.077 183.869 468.477L183.884 468.177C183.884 466.235 182.309 464.659 180.367 464.659C180.109 464.659 179.859 464.688 179.619 464.74C179.731 464.3 179.791 463.839 179.791 463.364C179.791 460.313 177.319 457.843 174.269 457.843C171.22 457.843 168.747 460.313 168.747 463.364L168.757 463.693C167.96 463.247 167.041 462.991 166.063 462.991C163.233 462.991 160.903 465.119 160.581 467.861C160.236 467.899 159.907 467.984 159.6 468.113L159.612 467.841C159.612 465.899 158.036 464.323 156.093 464.323C154.704 464.323 153.503 465.129 152.931 466.299C152.617 465.744 152.021 465.367 151.339 465.367C150.328 465.367 149.508 466.188 149.508 467.197C149.508 467.359 149.531 467.512 149.569 467.66C148.255 468.169 147.321 469.445 147.321 470.94C147.321 471.412 147.415 471.86 147.583 472.271H189.285" fill="#80C93E"/>
<path d="M174.781 458.744C174.781 458.943 174.62 459.103 174.423 459.103C174.224 459.103 174.063 458.943 174.063 458.744C174.063 458.545 174.224 458.384 174.423 458.384C174.62 458.384 174.781 458.545 174.781 458.744Z" fill="#C8E88B"/>
<path d="M180.965 465.745C180.965 465.943 180.804 466.104 180.605 466.104C180.407 466.104 180.247 465.943 180.247 465.745C180.247 465.545 180.407 465.385 180.605 465.385C180.804 465.385 180.965 465.545 180.965 465.745Z" fill="#C8E88B"/>
<path d="M166.557 463.661C166.557 463.861 166.396 464.021 166.197 464.021C165.999 464.021 165.837 463.861 165.837 463.661C165.837 463.464 165.999 463.303 166.197 463.303C166.396 463.303 166.557 463.464 166.557 463.661Z" fill="#C8E88B"/>
<path d="M156.952 465.056C156.952 465.255 156.789 465.416 156.591 465.416C156.393 465.416 156.232 465.255 156.232 465.056C156.232 464.859 156.393 464.696 156.591 464.696C156.789 464.696 156.952 464.859 156.952 465.056Z" fill="#C8E88B"/>
<path d="M175.515 459.359C175.515 459.497 175.401 459.612 175.26 459.612C175.12 459.612 175.007 459.497 175.007 459.359C175.007 459.217 175.12 459.103 175.26 459.103C175.401 459.103 175.515 459.217 175.515 459.359Z" fill="#C8E88B"/>
<path d="M173.871 458.744C173.871 458.884 173.757 458.999 173.617 458.999C173.477 458.999 173.363 458.884 173.363 458.744C173.363 458.604 173.477 458.489 173.617 458.489C173.757 458.489 173.871 458.604 173.871 458.744Z" fill="#C8E88B"/>
<path d="M167.544 464.021C167.544 464.161 167.431 464.276 167.289 464.276C167.149 464.276 167.036 464.161 167.036 464.021C167.036 463.88 167.149 463.767 167.289 463.767C167.431 463.767 167.544 463.88 167.544 464.021Z" fill="#C8E88B"/>
<path d="M155.465 465.309C155.465 465.451 155.352 465.565 155.211 465.565C155.071 465.565 154.957 465.451 154.957 465.309C154.957 465.171 155.071 465.056 155.211 465.056C155.352 465.056 155.465 465.171 155.465 465.309Z" fill="#C8E88B"/>
<path d="M171.572 459.487L171.393 459.667L171.213 459.487L171.393 459.307L171.572 459.487Z" fill="#C8E88B"/>
<path d="M182.913 466.747L182.733 466.925L182.555 466.747L182.733 466.567L182.913 466.747Z" fill="#C8E88B"/>
<path d="M164.364 464.2L164.184 464.38L164.004 464.2L164.184 464.021L164.364 464.2Z" fill="#C8E88B"/>
<path d="M158.555 465.924L158.375 466.104L158.195 465.924L158.375 465.745L158.555 465.924Z" fill="#C8E88B"/>
<path d="M177.087 458.999L176.907 459.179L176.727 458.999L176.907 458.819L177.087 458.999Z" fill="#C8E88B"/>
<path d="M789.989 479.644H44.5494C42.5854 479.644 40.9774 478.036 40.9774 476.073V475.88C40.9774 473.917 42.5854 472.309 44.5494 472.309H789.989C791.953 472.309 793.56 473.917 793.56 475.88V476.073C793.56 478.036 791.953 479.644 789.989 479.644Z" fill="#507328"/>
<path d="M445.149 479.644H437.707L438.016 478.392C440.747 478.763 443.148 479.184 445.149 479.644M378.087 479.644H370.947C372.876 479.2 375.177 478.793 377.788 478.432L378.087 479.644" fill="#4A6926"/>
</g>
</svg>
