<?xml version="1.0" encoding="utf-8"?>
<!-- Generator: Adobe Illustrator 25.4.1, SVG Export Plug-In . SVG Version: 6.00 Build 0)  -->
<svg version="1.1" id="Layer_1" xmlns="http://www.w3.org/2000/svg" xmlns:xlink="http://www.w3.org/1999/xlink" x="0px" y="0px"
	 viewBox="0 0 555 555" style="enable-background:new 0 0 555 555;" xml:space="preserve">
<style type="text/css">
	.st0{fill:#FFFFFF;}
	.st1{fill:#E85E86;}
	.st2{fill:#F5EBA8;}
	.st3{fill:#271D11;}
	.st4{fill:#FFFBD5;}
</style>
<g>
	<path class="st0" d="M177.5,555c-2.6,0-5.3-0.3-7.9-0.9c-15-3.2-40.7-15.8-44.6-63.5c-0.3-3.6-0.5-7.1-0.5-10.5
		c-2.9-0.5-6-1.1-9.1-1.7c-32.6-6.6-51.2-16.3-60.2-31.6c-6.5-11-7.2-24.1-1.9-35.9c7.7-17.2,28.1-30.5,67.9-44.2
		c17.4-6,36.1-11.2,51.1-15.1c5.9-41.1,18.5-98.8,39-156.5c-1.8-0.3-3.7-0.7-5.6-1.1c-17.7-4.1-29.9-12.4-36.3-24.7
		c-4.1-7.7-9.1-23.7,3.4-43.3c12.6-19.9,46.1-38.1,99.7-54.1c13.7-19.1,28.3-34.5,43.3-46c21.3-16.3,44.2-25,67.8-25.8
		c1.1,0,2.2-0.1,3.4-0.1c39.6,0,75.2,23,97.5,63.2c28,50.3,27.6,115-1,161.1c-4.3,6.9-9.1,13.4-14.4,19.4c-0.4,0.4-0.8,0.9-1.2,1.3
		c-4.4,36.8-7.9,59.9-10.4,68.8c-5.6,20-25.6,33-51.2,33c0,0,0,0,0,0c-5.9,0-15-0.8-23.8-4.5c-2.2,0.2-4.6,0.3-7.1,0.3
		c-9.1,0-16.7-1.4-23.1-3.8c-44.1,30.4-88.7,58.2-115,74.1c-1.5,21.3-4.1,47.3-8.3,70C225,504.4,215.7,555,177.5,555z"/>
	<g>
		<g>
			<path class="st1" d="M441.6,224.5c0,0-7.6,67.4-11.6,81.6c-3.9,14.2-33.6,15.2-41,6.6c0,0-43.7,8.6-34.1-19.5
				C364.5,265.1,441.6,224.5,441.6,224.5z"/>
		</g>
		<g>
			<path class="st1" d="M297.2,94.5c0,0-23.1,63.8-30.3,76.7c-7.1,12.9-36.3,6.9-41.4-3.1c0,0-44.5-1.8-28.6-26.9
				C212.8,116,297.2,94.5,297.2,94.5z"/>
		</g>
		<g>
			<path class="st1" d="M459.3,209.3c-3.3,5.3-7.1,10.5-11.4,15.3C385.6,294,196.7,403.8,196.7,403.8
				c-1.2-69.1,47.8-287.8,136.4-355.2c15.9-12.2,33.1-19.4,51.5-20C458.7,26.1,503.6,137.8,459.3,209.3z"/>
		</g>
		<g>
			<path class="st1" d="M210.9,371.8c0,0-120,25.2-131.5,50.9c-11.5,25.7,75.1,32.6,75.1,32.6s-9.9,64.3,21.2,71
				S210.9,371.8,210.9,371.8z"/>
		</g>
		<g>
			<path class="st2" d="M459.3,209.3C354.7,179.3,334,101.9,333.1,48.6c15.9-12.2,33.1-19.4,51.5-20
				C458.7,26.1,503.6,137.8,459.3,209.3z"/>
		</g>
		<g>
			<path class="st3" d="M390.9,63c0.5,3.1-1.6,6-4.7,6.5c-3.1,0.5-6-1.6-6.5-4.7c-0.5-3.1,1.6-6,4.7-6.5
				C387.5,57.8,390.4,59.9,390.9,63z"/>
		</g>
		<g>
			<path class="st4" d="M412.2,231.7c-0.1,0-0.2,0-0.2,0c-36.4,2.1-46-30.5-47.8-38.8c-34.8-3.9-37.6-37.8-37.7-45.9
				c-25.6-11.4-15.6-44.3-15.5-44.6c0.4-1.3,1.8-2,3-1.6c1.3,0.4,2,1.8,1.6,3.1c-0.4,1.2-9.1,30.2,14.2,39.3c1,0.4,1.6,1.3,1.6,2.4
				c-0.1,1.6-1.4,39.8,35.1,42.7c1.1,0.1,2.1,0.9,2.2,2.1c0.2,1.6,6.2,38.6,43.1,36.5c1.3-0.1,2.5,1,2.6,2.3
				C414.3,230.4,413.4,231.5,412.2,231.7z"/>
		</g>
		<g>
			<path class="st4" d="M371,264.5c-0.1,0-0.2,0-0.2,0c-32,1.8-40.7-26.6-42.5-34.3c-30.5-3.5-33.2-33-33.3-40.6
				c-22.6-10.2-13.8-39.4-13.7-39.7c0.4-1.3,1.8-2,3-1.6c1.3,0.4,2,1.8,1.6,3.1c-0.3,1.1-8,26.4,12.3,34.3c1,0.4,1.6,1.3,1.6,2.4
				c-0.1,1.4-1.3,34.9,30.7,37.4c1.1,0.1,2.1,0.9,2.2,2.1c0.2,1.4,5.4,33.8,37.8,32c1.3-0.1,2.5,1,2.6,2.3
				C373.1,263.2,372.2,264.3,371,264.5z"/>
		</g>
		<g>
			<path class="st4" d="M324.2,296.5c-0.1,0-0.2,0-0.2,0c-22.2,1.3-28.7-17.8-30.2-23.9c-20.7-2.7-23.1-22.4-23.3-28.4
				c-12.6-6-11.8-21-9.5-28.3c0.4-1.3,1.8-2,3-1.6c1.3,0.4,2,1.8,1.6,3c-0.2,0.7-5.3,17.7,8.1,23c1,0.4,1.6,1.3,1.6,2.4
				c0,1-0.8,23.6,20.7,25.3c1.1,0.1,2,0.9,2.2,2.1c0.1,0.9,3.7,22.9,25.5,21.6c1.3-0.1,2.5,1,2.6,2.3
				C326.4,295.3,325.5,296.3,324.2,296.5z"/>
		</g>
	</g>
</g>
</svg>
