<?xml version="1.0" encoding="utf-8"?>
<!-- Generator: Adobe Illustrator 25.4.1, SVG Export Plug-In . SVG Version: 6.00 Build 0)  -->
<svg version="1.1" id="Layer_1" xmlns="http://www.w3.org/2000/svg" xmlns:xlink="http://www.w3.org/1999/xlink" x="0px" y="0px"
	 viewBox="0 0 363.9 73.7" style="enable-background:new 0 0 363.9 73.7;" xml:space="preserve">
<style type="text/css">
	.st0{fill:#D33027;stroke:#7A3017;stroke-width:2;stroke-linecap:round;stroke-linejoin:round;stroke-miterlimit:10;}
</style>
<g id="XMLID_1011_">
	<g>
		<g>
			<path class="st0" d="M4,16.9L4.5,5.1c3.1,0.2,6.3,0.4,9.4,0.4C22.3,5.5,30.4,5,38.4,4l-1,4.9c-0.3,1.4-0.6,2.8-0.9,4.3
				c-0.3,1.5-0.5,2.7-0.8,3.8c-1.4,0.4-2.8,0.6-4.1,0.8c-1.4,0.2-2.7,0.3-4,0.6c-1.1,4.6-2.2,10.3-3.2,17.2c-2.4,15.1-4.1,26.1-5,33
				L2.8,71.1c4.9-22.8,8.1-40.6,9.8-53.5c-1.4-0.2-2.9-0.2-4.3-0.2C6.9,17.5,5.4,17.3,4,16.9z"/>
			<path class="st0" d="M54.5,4.3c-6.8,34.7-11,56.4-12.5,64.9c-1.7,0-4.6,0.3-8.7,0.8s-6.3,0.8-6.4,0.9c1.9-6.9,3.7-14.5,5.3-22.7
				c3.7-18.7,6.3-32.6,7.9-41.6L54.5,4.3z"/>
			<path class="st0" d="M66.6,55.7c1.5,0,3.1-0.9,4.8-2.8c1.7-1.9,2.8-3.9,3.2-5.9l10.5,4.2c-2.7,6.3-6.2,11.3-10.6,15
				c-3.9,3.3-7.9,4.9-11.9,4.9c-3.8,0-6.9-1.7-9.3-5.2c-2.5-3.7-3.8-8.6-3.8-14.6c0-6,0.8-11.9,2.4-17.5c1.6-5.6,3.8-10.7,6.7-15.1
				c2.9-4.5,6.3-8.1,10.3-10.8c4-2.8,8.3-4.1,13.1-4.1c3.1,0,5.7,1.2,7.8,3.5c2.1,2.4,3.1,5.5,3.1,9.4v1.2c0,0.4,0,0.8-0.1,1.2
				l-12,3.2c-0.7-1.5-1.6-2.2-2.6-2.2s-2,0.6-3.1,1.7c-1.1,1.1-2.1,2.6-3.2,4.4c-1,1.8-2.1,3.8-3,6.1c-1,2.2-1.8,4.5-2.5,6.8
				c-1.7,5-2.5,9.1-2.5,12.2C63.8,54.2,64.8,55.7,66.6,55.7z"/>
			<path class="st0" d="M114.7,49.1c-8.6-0.2-13.9-0.4-15.8-0.4c-3.4,0-6.2,0-8.4,0.1s-4,0.1-5.7,0.1l4.4-16.3
				c6.7,0.2,10.9,0.4,12.6,0.4c5.9,0,11.2-0.1,16-0.4L114.7,49.1z"/>
			<path class="st0" d="M119.3,16.9l0.4-11.8c3.1,0.2,6.3,0.4,9.4,0.4c8.4,0,16.6-0.5,24.5-1.5l-1,4.9c-0.3,1.4-0.6,2.8-0.9,4.3
				c-0.3,1.5-0.5,2.7-0.8,3.8c-1.4,0.4-2.8,0.6-4.1,0.8c-1.4,0.2-2.7,0.3-4,0.6c-1.1,4.6-2.2,10.3-3.2,17.2c-2.4,15.1-4.1,26.1-5,33
				l-16.5,2.6c4.9-22.8,8.1-40.6,9.8-53.5c-1.4-0.2-2.9-0.2-4.3-0.2C122.1,17.5,120.7,17.3,119.3,16.9z"/>
			<path class="st0" d="M158.8,55.3l-3.7,13.2c-1.4,0.2-3,0.4-4.8,0.6c-1.8,0.2-3.6,0.5-5.4,0.7c-1.8,0.2-3.7,0.4-5.6,0.7
				c2.5-8.1,4.5-15,6.2-20.7c1.7-5.6,3.1-10.3,4.2-13.9c1.1-3.6,2.1-7.2,3.2-10.8c1-3.6,2.1-7,3.1-10.3s1.9-6.4,2.7-9.1
				c11.1-0.8,19.5-1.7,25.3-2.9c-0.5,5.9-1,12.9-1.3,21c-0.8,16.1-1.4,31-2,44.6c-1.8,0.3-3.5,0.6-5.3,0.8c-1.7,0.2-3.5,0.5-5.3,0.8
				c-1.8,0.3-3.5,0.6-5,0.8c0.7-5.8,1.2-10.9,1.7-15.5H158.8z M161,46.1l6.6-0.4c0-0.4,0-1,0.1-1.8c0.1-0.9,0.2-1.9,0.3-3
				c0.5-6.4,1-12.4,1.5-17.9l0.6-8l-1.4,0.1L161,46.1z"/>
			<path class="st0" d="M201.1,55.7c1.5,0,3.1-0.9,4.8-2.8c1.7-1.9,2.8-3.9,3.2-5.9l10.5,4.2c-2.7,6.3-6.2,11.3-10.6,15
				c-3.9,3.3-7.9,4.9-11.9,4.9c-3.8,0-6.9-1.7-9.3-5.2c-2.5-3.7-3.8-8.6-3.8-14.6c0-6,0.8-11.9,2.4-17.5c1.6-5.6,3.8-10.7,6.7-15.1
				c2.9-4.5,6.3-8.1,10.3-10.8c4-2.8,8.3-4.1,13.1-4.1c3.1,0,5.7,1.2,7.8,3.5c2.1,2.4,3.1,5.5,3.1,9.4v1.2c0,0.4,0,0.8-0.1,1.2
				l-12,3.2c-0.7-1.5-1.6-2.2-2.6-2.2s-2,0.6-3.1,1.7c-1.1,1.1-2.1,2.6-3.2,4.4c-1,1.8-2.1,3.8-3,6.1c-1,2.2-1.8,4.5-2.5,6.8
				c-1.7,5-2.5,9.1-2.5,12.2C198.3,54.2,199.3,55.7,201.1,55.7z"/>
			<path class="st0" d="M249.2,49.1c-8.6-0.2-13.9-0.4-15.8-0.4c-3.4,0-6.2,0-8.4,0.1s-4,0.1-5.7,0.1l4.4-16.3
				c6.7,0.2,10.9,0.4,12.6,0.4c5.9,0,11.2-0.1,16-0.4L249.2,49.1z"/>
			<path class="st0" d="M253.8,16.9l0.4-11.8c3.1,0.2,6.3,0.4,9.4,0.4c8.4,0,16.6-0.5,24.5-1.5l-1,4.9c-0.3,1.4-0.6,2.8-0.9,4.3
				c-0.3,1.5-0.5,2.7-0.8,3.8c-1.4,0.4-2.8,0.6-4.1,0.8c-1.4,0.2-2.7,0.3-4,0.6c-1.1,4.6-2.2,10.3-3.2,17.2c-2.4,15.1-4.1,26.1-5,33
				l-16.5,2.6c4.9-22.8,8.1-40.6,9.8-53.5c-1.4-0.2-2.9-0.2-4.3-0.2C256.6,17.5,255.2,17.3,253.8,16.9z"/>
			<path class="st0" d="M326.7,23.3c0,3.7-0.5,7.7-1.6,12.1c-1,4.4-2.5,8.5-4.3,12.2c-1.8,3.7-3.9,7-6.2,10
				c-2.4,2.9-4.8,5.4-7.4,7.5c-5.3,4.2-10.5,6.3-15.4,6.3c-4.1,0-7.4-1.5-9.8-4.5c-2.6-3.3-4-8.1-4-14.4c0-6.8,1.6-14.2,4.8-22.1
				c3.2-7.9,7.3-14.5,12.5-19.8c5.6-5.6,11.4-8.4,17.5-8.4c5,0,8.7,2,11.1,6.1C325.8,11.6,326.7,16.6,326.7,23.3z M314,28.9
				c0-5-1.4-7.5-4.3-7.5c-3.7,0-6.9,1.8-9.9,5.4c-2.3,2.9-4.3,6.8-6,11.8c-1.3,4.1-2,7.9-2,11.5c0,2.4,1,4.2,3.1,5.4
				c0.6,0.4,1.3,0.6,2.1,0.6c2.8,0,5.2-0.9,7.3-2.8c2.1-1.9,3.9-4.2,5.3-7c1.4-2.8,2.5-5.7,3.3-8.8C313.6,34.4,314,31.5,314,28.9z"
				/>
			<path class="st0" d="M321.3,71.1l12-65.4l29.1-2.5c-0.4,1.4-0.8,2.7-1.1,4c-0.3,1.3-0.6,2.6-0.9,3.8c-0.3,1.3-0.5,2.4-0.7,3.3
				c-1.8,0.2-4.3,0.3-7.4,0.3h-6.2L343,31.1c3.3-0.2,6-0.3,8.3-0.4c2.2-0.1,3.7-0.1,4.3-0.2c-0.2,1.7-0.5,3.4-0.7,5.1
				c-0.2,1.6-0.5,3.3-0.8,5.1c-0.7,0.1-1.7,0.1-3.1,0.1c-1.4,0-2.8,0.1-4.3,0.1c-1.5,0.1-3.2,0.1-5,0.2l-3.1,17L352,56l-0.9,10.5
				L321.3,71.1z"/>
		</g>
	</g>
</g>
</svg>
