<?xml version="1.0" encoding="utf-8"?>
<!-- Generator: Adobe Illustrator 25.4.1, SVG Export Plug-In . SVG Version: 6.00 Build 0)  -->
<svg version="1.1" id="Layer_1" xmlns="http://www.w3.org/2000/svg" xmlns:xlink="http://www.w3.org/1999/xlink" x="0px" y="0px"
	 viewBox="0 0 343.6 230.9" style="enable-background:new 0 0 343.6 230.9;" xml:space="preserve">
<style type="text/css">
	.st0{fill:#FFFFFF;}
	.st1{fill:#56BDB0;}
	.st2{fill:#EAB81F;stroke:#7C1130;stroke-width:2;stroke-miterlimit:10;}
</style>
<g>
	<path class="st0" d="M138,193.1c-19.9-1.5-64.7-6.5-98.7-21.6c-20.5-9.1-34-26.7-38.1-49.7c-5.4-30.6,6.9-68.4,29.3-89.9
		c11.4-11,34.4-19.1,70.1-24.8c28.2-4.5,63.2-7.1,96-7.1c19.9,0,56.5,1,78.3,7.7c17,5.2,32.5,16.5,44.8,32.6
		c11,14.4,18.9,32.4,22.5,50.7c6.7,34.5-2.7,65.9-25.1,84c-9.5,7.7-25.1,12.9-47.6,15.8c-14.6,1.9-31.8,2.9-51.2,2.9c0,0,0,0,0,0
		c-8.5,0-15.6-0.2-20.4-0.4l-45.6,37.7L138,193.1z"/>
	<g>
		<path class="st1" d="M270.4,22.4C224.9,8.5,70,15.2,41.1,43c-28.9,27.8-41.3,94.2,4.4,114.5c42,18.6,103.4,20.9,103.4,20.9
			l10.2,27l33.6-27.8c0,0,90.1,5.2,114.8-14.7C350.4,128.3,324.1,38.8,270.4,22.4z"/>
		<g>
			<path class="st0" d="M154.7,34.4c12.6-1.3,25.2-1.9,37.9-2c4.6,0,4.6-7.1,0-7.1c-12.7,0-25.3,0.6-37.9,2
				C150.1,27.7,150.1,34.9,154.7,34.4L154.7,34.4z"/>
		</g>
		<g>
			<path class="st0" d="M140.9,35.5c4.6,0,4.6-7.1,0-7.1C136.3,28.4,136.3,35.5,140.9,35.5L140.9,35.5z"/>
		</g>
		<g>
			<path class="st0" d="M191,46.3c5.1-1,10.4-0.5,15.6-0.4c4.6,0,4.6-7.1,0-7.1c-5.9,0-11.7-0.4-17.5,0.7
				C184.6,40.3,186.5,47.2,191,46.3L191,46.3z"/>
		</g>
		<g>
			<path class="st2" d="M87.1,95.7c1.5-3.8,4.1-11,7.6-21.4l11.2,2.5c-2.6,5.3-4.9,10-7,14.3l-4.5,9.3c-0.9,1.9-1.8,3.7-2.6,5.5
				c-0.9,1.8-1.7,3.4-2.4,5c-0.7,3.6-1.8,7.9-3.3,13.1l-12.3,1.5l3.3-14.5c0-5.8-0.2-12.2-0.7-19.3c-0.5-7-0.8-11.1-0.8-12.2
				L75.4,78l11.7-4.5V86l-0.1,7V95.7z"/>
			<path class="st2" d="M134.7,89.2c0,2.9-0.4,6-1.2,9.5c-0.8,3.5-1.9,6.7-3.3,9.6c-1.4,2.9-3,5.5-4.9,7.8c-1.9,2.3-3.8,4.2-5.8,5.8
				c-4.2,3.3-8.2,4.9-12,4.9c-3.2,0-5.8-1.2-7.7-3.5c-2.1-2.6-3.1-6.3-3.1-11.2c0-5.3,1.2-11.1,3.7-17.3c2.5-6.2,5.7-11.3,9.8-15.5
				c4.4-4.4,8.9-6.6,13.7-6.6c3.9,0,6.8,1.6,8.6,4.8C133.9,80,134.7,83.9,134.7,89.2z M124.7,93.6c0-3.9-1.1-5.8-3.4-5.8
				c-2.9,0-5.4,1.4-7.7,4.2c-1.8,2.2-3.4,5.3-4.7,9.2c-1,3.2-1.5,6.2-1.5,9c0,1.9,0.8,3.3,2.4,4.2c0.5,0.3,1,0.5,1.6,0.5
				c2.2,0,4.1-0.7,5.7-2.2c1.7-1.5,3.1-3.3,4.2-5.4c1.1-2.2,2-4.5,2.6-6.9C124.4,97.9,124.7,95.6,124.7,93.6z"/>
			<path class="st2" d="M139.4,75.3c1-0.1,2.2-0.2,3.6-0.4c1.4-0.1,2.7-0.3,4.1-0.4c1.3-0.1,2.7-0.2,4.2-0.4
				c-1.2,5.8-2.2,10.3-2.9,13.7s-1.3,6.1-1.7,8.1c-0.4,2-0.8,3.9-1.1,5.6c-0.8,3.6-1.2,5.9-1.5,7c-0.7,3.2-1.1,5.3-1.1,6.3
				c0,0.9,0.2,1.7,0.6,2.1c0.4,0.5,0.9,0.7,1.6,0.7c0.7,0,1.3-0.3,1.8-1c0.5-0.7,1-1.4,1.3-2.3c0.4-0.9,0.6-1.8,0.8-2.7
				c0.2-0.9,0.4-1.9,0.6-2.8c0.2-1,0.5-2.3,0.8-4c0.4-1.7,0.7-3.5,1.1-5.3c0.4-1.9,0.7-3.7,1.1-5.7c1-4.9,2.1-11.2,3.4-18.7
				l10.9-0.7l-0.4,1.8c-0.6,3-1.2,6.4-1.9,10.2c-0.7,3.9-1.3,7.2-1.9,10c-1.5,7.3-2.5,12.5-3.2,15.6c-0.7,3.1-1.7,5.6-2.9,7.5
				c-1.2,1.9-2.7,3.5-4.3,4.8c-3.1,2.3-6.8,3.5-10.9,3.5c-2.5,0-4.7-0.7-6.5-2.1c-2.1-1.7-3.1-3.9-3.1-6.7c0-0.2,0-0.4,0-0.6
				c0-0.2,0.1-0.8,0.2-1.9c0.1-1.1,0.4-3,0.8-5.8c0.4-2.8,0.9-5.7,1.4-8.7s1-6.1,1.6-9.1c0.6-3,1.1-5.8,1.5-8.3
				C138.6,79.3,139.3,76.2,139.4,75.3z"/>
			<path class="st2" d="M194.8,74.3c0,0.1-1.7,10.7-5.1,31.8h1.1c1.4-5,2.7-9.6,3.9-13.9s2.1-7.2,2.6-8.8c0.9-3.6,1.7-6.3,2.2-8.1
				h0.6c2.3,0,4.9-0.3,7.6-0.9c-0.1,0.4-0.2,1.3-0.3,2.6c-0.1,1.3-0.3,3-0.5,4.9c-0.2,1.9-0.4,4-0.6,6.3c-0.2,2.3-0.4,4.5-0.6,6.7
				c-0.3,4-0.7,7.7-1.1,11.2h1.3l6.8-30.9c1.6-0.2,3.2-0.4,4.7-0.6c3.9-0.5,6.7-0.9,8.4-1.3c-1.9,5.4-3.6,11.3-5.2,17.6
				c-3.8,14.8-6.4,25.6-7.9,32.3l-16.2,2.7l3.2-27.8h-0.9l-7.1,26.1l-15,2.7l5.5-51.1c2.2-0.1,4.4-0.3,6.4-0.7
				C190.9,74.7,192.9,74.4,194.8,74.3z"/>
			<path class="st2" d="M238.5,74.3c-5.3,27.2-8.6,44.1-9.8,50.8c-1.3,0-3.6,0.2-6.8,0.6s-4.9,0.7-5,0.7c1.5-5.4,2.9-11.4,4.1-17.8
				c2.9-14.7,5-25.5,6.2-32.6L238.5,74.3z"/>
			<path class="st2" d="M243.1,73.8h2c0.9,0,3.6-0.1,7.9-0.3c0.7,3.4,1.3,6.5,1.8,9.4c1.5,8.3,2.5,13.7,3.1,16.1
				c0.2-1,0.4-2.1,0.6-3.4c0.2-1.3,0.5-2.6,0.8-4c0.3-1.4,0.6-2.8,0.8-4.3c0.5-2.3,1.4-6.9,2.9-13.9l8.8-1.1
				c-5.1,23.7-8.3,40.7-9.6,51c-0.6,0-2.5,0.4-5.8,1.2c-3.3,0.8-5.3,1.3-5.9,1.5c-0.9-12.8-2-21.9-3.1-27.3
				c-0.1,0.9-0.3,1.9-0.6,3.1c-0.2,1.2-0.5,2.5-0.7,3.8c-0.9,5.1-2.1,11.3-3.5,18.5l-10.5,2.5c5.3-25.5,8.5-43.2,9.4-53.2
				C242.1,73.8,242.7,73.8,243.1,73.8z"/>
			<path class="st2" d="M270.7,128.2c-1.3,0-2.3-0.2-3.1-0.6c-0.8-0.4-1.5-0.9-2-1.5c-1.1-1.4-1.6-2.9-1.6-4.7c0-3,1.3-5.2,4-6.5
				c0.9-0.4,1.9-0.6,3.2-0.6c2.8,0,4.9,0.7,6.3,2c1.4,1.3,2.1,2.8,2.1,4.5c0,2-0.8,3.7-2.3,5.1C275.5,127.4,273.3,128.2,270.7,128.2
				z M292.3,72.7c-2.6,6-4.9,12.1-7.1,18.2c-2.1,6.1-4.3,12.3-6.4,18.5c-1.4,0-2.8,0-4.2,0.1c-1.4,0.1-2.8,0.2-4.2,0.3
				c1.5-5.9,3-11.7,4.4-17.6c1.4-5.9,2.9-11.7,4.4-17.6c0.9-0.1,1.9-0.3,3.1-0.5c1.2-0.2,2.4-0.3,3.6-0.5c1.2-0.2,2.4-0.4,3.5-0.5
				S291.6,72.9,292.3,72.7z"/>
		</g>
	</g>
</g>
</svg>
