<?xml version="1.0" encoding="utf-8"?>
<!-- Generator: Adobe Illustrator 25.4.1, SVG Export Plug-In . SVG Version: 6.00 Build 0)  -->
<svg version="1.1" id="Layer_1" xmlns="http://www.w3.org/2000/svg" xmlns:xlink="http://www.w3.org/1999/xlink" x="0px" y="0px"
	 viewBox="0 0 555 555" style="enable-background:new 0 0 555 555;" xml:space="preserve">
<style type="text/css">
	.st0{fill:#FFFFFF;}
	.st1{fill:#A7A2A0;}
	.st2{fill:#696969;}
	.st3{fill:#E5CF4D;}
	.st4{fill:#16162A;}
	.st5{fill:#CBC9C8;}
</style>
<g>
	<path class="st0" d="M537.7,290.5c-0.4,0-0.9,0-1.3,0.1c-28,2.2-55.3,3.4-81.1,3.6c0.8-22.1-3.4-45.3-12.6-68.2
		c8.8-33.3,15.9-75.3,3.5-96.6c-3.7-6.4-11.8-14.1-28.7-14.1c-15.6,0-37.9,6.6-66.3,19.6c-23.6-8.3-48.9-12.7-73.6-12.7
		c-5.5,0-11.1,0.2-16.7,0.6c-0.4,0-0.8,0-1.1,0c-1.5,0-2.9,0.2-4.3,0.5c-16.8,1.7-33.5,5.4-49.8,11.1c-27.8-12.6-49.7-19-65.1-19
		c-17,0-25,7.7-28.7,14.1c-6.5,11.2-8.3,28.3-5.3,52.4c1.8,14.8,5.1,29.5,7.9,40.7c-9.9,19.4-13.7,44.8-11,71.7
		c-26.9-0.1-55.5-1.3-84.9-3.6c-0.4,0-0.9-0.1-1.3-0.1c-8.8,0-15.9,6.9-16.3,15.8c-0.4,9,6.4,16.6,15.3,17.3
		c26.9,2.1,53.2,3.3,78.2,3.6c-19.6,3.9-39.9,7.8-59,8.4c-9.1,0.3-16.2,7.7-16,16.9c0.1,9.1,7.3,16.2,16.4,16.2l0.3,0l0.2,0
		c18.9-0.6,37.6-4.1,55.7-7.6c5.2-1,10.1-1.9,15.1-2.8c4.9-0.9,9.5-1.7,13.8-2.5c0.6,1.3,1.3,2.5,1.9,3.8
		c-25.5,8.9-48.4,15-70.9,18.9c-8.4,1.5-14.2,9-13.5,17.4c0.8,8.7,7.9,15.3,16.6,15.3c1,0,1.9-0.1,2.9-0.3
		c26.6-4.6,53.5-12,83.9-23.1c10.3,12.2,22.1,22.1,35.3,29.4c26.2,14.6,57.3,22.4,90,22.4c53.2,0,107.3-20,143.7-52.7
		c31.3,11.5,58.9,19.2,86.1,23.9c1,0.2,1.9,0.3,2.9,0.3c8.7,0,15.9-6.6,16.6-15.3c0.7-8.5-5.1-16-13.4-17.4
		c-21.9-3.8-44-9.6-68.6-18.1c0.9-1.4,1.8-2.7,2.6-4.1c1.7,0.3,3.5,0.6,5.2,1c4.9,0.9,10,1.9,14.9,2.8c20,3.9,40.7,7.9,61.5,8.5
		l0.3,0h0.2c9.1,0,16.3-7.1,16.4-16.2c0.1-9.2-6.9-16.6-16-16.9c-17.7-0.6-36.5-4.2-54.7-7.7c-1.2-0.2-2.4-0.5-3.7-0.7
		c24.8-0.3,50.8-1.6,77.5-3.6c8.9-0.7,15.7-8.3,15.3-17.3C553.7,297.4,546.5,290.5,537.7,290.5z"/>
	<g>
		<g>
			<g>
				<path class="st1" d="M132.7,233.9c0,0-22.5-72.8-8.3-97.3c14.2-24.5,102.9,24.7,102.9,24.7L132.7,233.9z"/>
			</g>
			<g>
				<path class="st1" d="M425.3,233.9c0,0,22.5-72.8,8.3-97.3c-14.2-24.5-102.9,24.7-102.9,24.7L425.3,233.9z"/>
			</g>
		</g>
		<g>
			<path class="st2" d="M184,167.5c-1-0.4-25.7-11.2-39.8-9.5c-2,0.2-3.7,1.3-4.9,3.1c-7.3,10.5,0.8,45.5,1.2,47l0.4,1.8l44.6-41.7
				L184,167.5z"/>
			<path class="st2" d="M418.8,161.1c-1.3-1.8-2.9-2.8-4.9-3.1c-14.1-1.6-38.8,9.1-39.8,9.5l-1.5,0.7l44.6,41.7l0.4-1.8
				C418,206.6,426.1,171.5,418.8,161.1z"/>
		</g>
		<g>
			<path class="st1" d="M206,149.6c0,0-51.4,29.7-77.5,77.5c-26.1,47.8-6.4,142.7,55.9,177.6c90.1,50.5,220.8,0.9,248.8-73
				C461,257.8,406,183,388,169.5C370,155.9,296.1,116.3,206,149.6z"/>
		</g>
		<g>
			<g>
				<g>
					<path class="st3" d="M366.5,257c0,11.8-9.4,21.4-21.1,21.4c-11.6,0-21.1-9.6-21.1-21.4c0-11.8,9.4-21.4,21.1-21.4
						C357,235.7,366.5,245.3,366.5,257z"/>
				</g>
				<g>
					<path class="st4" d="M354.4,257.2c0,11.7-4,21.2-9,21.2c-5,0-9-9.5-9-21.2c0-11.7,4-21.2,9-21.2
						C350.4,236,354.4,245.5,354.4,257.2z"/>
				</g>
			</g>
			<g>
				<g>
					<path class="st3" d="M231.7,257c0,11.8-9.4,21.4-21.1,21.4c-11.6,0-21.1-9.6-21.1-21.4c0-11.8,9.4-21.4,21.1-21.4
						C222.3,235.7,231.7,245.3,231.7,257z"/>
				</g>
				<g>
					<path class="st4" d="M219.6,257.2c0,11.7-4,21.2-9,21.2c-5,0-9-9.5-9-21.2c0-11.7,4-21.2,9-21.2
						C215.6,236,219.6,245.5,219.6,257.2z"/>
				</g>
			</g>
		</g>
		<g>
			<g>
				<path class="st2" d="M240.7,143.5c-0.3,2.9,0.1,5.7,0.9,8.4c1.1,4,7.4,2.3,6.3-1.7c-0.6-2.3-0.9-4.3-0.6-6.7
					c0.2-1.8-1.6-3.2-3.2-3.2C242,140.3,240.9,141.7,240.7,143.5L240.7,143.5z"/>
			</g>
		</g>
		<g>
			<g>
				<path class="st2" d="M243.4,165.8c0,3.2,0.5,6.4,1.2,9.6c1,4.1,7.2,2.3,6.3-1.7c-0.6-2.6-1-5.1-1-7.8
					C249.8,161.6,243.3,161.6,243.4,165.8L243.4,165.8z"/>
			</g>
		</g>
		<g>
			<g>
				<path class="st2" d="M247.9,188.1c0,2.6,0,5.3,0,7.9c0,4.2,6.5,4.2,6.5,0c0-2.6,0-5.3,0-7.9
					C254.4,183.9,247.9,183.9,247.9,188.1L247.9,188.1z"/>
			</g>
		</g>
		<g>
			<g>
				<path class="st2" d="M259.6,202.8c0,2.2,0.1,4.4,0.9,6.5c1.4,3.9,7.7,2.2,6.3-1.7c-0.6-1.6-0.6-3.1-0.6-4.8
					C266.1,198.7,259.6,198.7,259.6,202.8L259.6,202.8z"/>
			</g>
		</g>
		<g>
			<g>
				<path class="st2" d="M259.2,179c0,2.9,0,5.8,0,8.7c0,4.2,6.5,4.2,6.5,0c0-2.9,0-5.8,0-8.7C265.7,174.8,259.2,174.8,259.2,179
					L259.2,179z"/>
			</g>
		</g>
		<g>
			<g>
				<path class="st2" d="M255.8,156c0,2.5,0,5,0,7.6c0,4.2,6.5,4.2,6.5,0c0-2.5,0-5,0-7.6C262.3,151.8,255.8,151.8,255.8,156
					L255.8,156z"/>
			</g>
		</g>
		<g>
			<g>
				<path class="st2" d="M259.8,143.7c4.2,0,4.2-6.5,0-6.5C255.6,137.2,255.6,143.7,259.8,143.7L259.8,143.7z"/>
			</g>
		</g>
		<g>
			<g>
				<path class="st2" d="M272.1,143.1c0.3,3.6,0.4,7.3,0.4,11c0,4.2,6.5,4.2,6.5,0c0-3.7,0-7.3-0.4-11
					C278.2,139,271.7,138.9,272.1,143.1L272.1,143.1z"/>
			</g>
		</g>
		<g>
			<g>
				<path class="st2" d="M284.9,142.4c0,1.6,0,3.3,0,4.9c0,4.2,6.5,4.2,6.5,0c0-1.6,0-3.3,0-4.9
					C291.4,138.2,284.9,138.2,284.9,142.4L284.9,142.4z"/>
			</g>
		</g>
		<g>
			<g>
				<path class="st2" d="M272.1,168.1c0,1.8,0.1,3.7-0.3,5.6c-0.7,4.1,5.6,5.9,6.3,1.7c0.4-2.4,0.5-4.8,0.5-7.3
					C278.6,163.9,272.1,163.9,272.1,168.1L272.1,168.1z"/>
			</g>
		</g>
		<g>
			<g>
				<path class="st2" d="M286.6,163.6c0.3,1.1,0.3,2.2,0.3,3.3c0,4.2,6.5,4.2,6.5,0c0-1.7-0.1-3.4-0.5-5
					C291.7,157.9,285.5,159.6,286.6,163.6L286.6,163.6z"/>
			</g>
		</g>
		<g>
			<g>
				<path class="st2" d="M274.7,188.9c0,2.5,0.1,4.9,0.9,7.3c1.4,3.9,7.7,2.2,6.3-1.7c-0.6-1.8-0.6-3.6-0.6-5.6
					C281.2,184.7,274.7,184.7,274.7,188.9L274.7,188.9z"/>
			</g>
		</g>
		<g>
			<g>
				<path class="st2" d="M288.3,185.8c0,1.9,0,3.7-0.3,5.6c-0.3,1.8,0.4,3.5,2.3,4c1.6,0.4,3.7-0.5,4-2.3c0.4-2.4,0.5-4.8,0.5-7.3
					C294.8,181.6,288.3,181.6,288.3,185.8L288.3,185.8z"/>
			</g>
		</g>
		<g>
			<g>
				<path class="st2" d="M304.2,144.6c-0.5,3.9-2.1,7.3-1.9,11.3c0.2,4.2,6.7,4.2,6.5,0c-0.2-3.9,1.4-7.5,1.9-11.3
					c0.2-1.8-1.6-3.2-3.2-3.2C305.5,141.4,304.4,142.9,304.2,144.6L304.2,144.6z"/>
			</g>
		</g>
		<g>
			<g>
				<path class="st2" d="M298.2,169.2c0,1.4,0,2.8,0,4.2c0,4.2,6.5,4.2,6.5,0c0-1.4,0-2.8,0-4.2C304.7,165,298.2,165,298.2,169.2
					L298.2,169.2z"/>
			</g>
		</g>
		<g>
			<g>
				<path class="st2" d="M283.9,202.4c-0.6,1.5-0.9,3.1-1.6,4.5c-1.7,3.8,3.9,7.1,5.6,3.3c0.9-2,1.5-4,2.2-6.1
					C291.7,200.2,285.4,198.5,283.9,202.4L283.9,202.4z"/>
			</g>
		</g>
		<g>
			<g>
				<path class="st2" d="M274,216.1c0,0.6,0,1.3,0,1.9c0,4.2,6.5,4.2,6.5,0c0-0.6,0-1.3,0-1.9C280.5,211.9,274,211.9,274,216.1
					L274,216.1z"/>
			</g>
		</g>
		<g>
			<g>
				<g>
					<path class="st2" d="M120.4,264.4c2.5,3.8,5.9,6.5,9.6,9.1c3.4,2.4,6.7-3.2,3.3-5.6c-2.7-1.9-5.4-3.9-7.2-6.7
						C123.7,257.6,118.1,260.8,120.4,264.4L120.4,264.4z"/>
				</g>
			</g>
			<g>
				<g>
					<path class="st2" d="M141.9,279.5c2.1,1.2,4.2,2.2,6.4,3.1c1.6,0.7,3.6-0.7,4-2.3c0.5-1.8-0.6-3.3-2.3-4
						c-1.7-0.7-3.3-1.6-4.8-2.5C141.5,271.8,138.3,277.4,141.9,279.5L141.9,279.5z"/>
				</g>
			</g>
			<g>
				<g>
					<path class="st2" d="M119.9,282.1c2.4,1.8,4.7,3.6,7.5,4.8c1.6,0.7,3.5,0.5,4.4-1.2c0.8-1.4,0.5-3.8-1.2-4.4
						c-2.3-1-4.3-2.3-6.2-3.8c-1.4-1.1-3.2-1.4-4.6,0C118.8,278.6,118.5,281,119.9,282.1L119.9,282.1z"/>
				</g>
			</g>
			<g>
				<g>
					<path class="st2" d="M142.5,292.9c4.2,0,4.2-6.5,0-6.5C138.3,286.4,138.3,292.9,142.5,292.9L142.5,292.9z"/>
				</g>
			</g>
			<g>
				<g>
					<path class="st2" d="M156.5,291.3c1.3,2.1,3.1,3.1,5.6,3.4c1.8,0.2,3.2-1.6,3.2-3.2c0-1.9-1.5-3.1-3.2-3.2
						c0.2,0.2,0.2,0.1,0-0.2C160,284.5,154.3,287.7,156.5,291.3L156.5,291.3z"/>
				</g>
			</g>
		</g>
		<g>
			<g>
				<g>
					<path class="st2" d="M429.3,260.7c-1.8,2.8-4.5,4.8-7.2,6.7c-3.4,2.4-0.2,8,3.3,5.6c3.7-2.6,7.1-5.2,9.6-9.1
						C437.2,260.4,431.5,257.2,429.3,260.7L429.3,260.7z"/>
				</g>
			</g>
			<g>
				<g>
					<path class="st2" d="M410.1,273.5c-1.6,0.9-3.1,1.8-4.8,2.5c-1.6,0.7-2.8,2.1-2.3,4c0.4,1.6,2.3,2.9,4,2.3
						c2.2-0.9,4.3-1.9,6.4-3.1C417,277.1,413.7,271.4,410.1,273.5L410.1,273.5z"/>
				</g>
			</g>
			<g>
				<g>
					<path class="st2" d="M430.8,277.1c-1.9,1.5-3.9,2.9-6.2,3.8c-1.6,0.7-2,3.1-1.2,4.4c1,1.7,2.8,1.9,4.4,1.2
						c2.8-1.2,5.1-3,7.5-4.8c1.4-1.1,1.1-3.5,0-4.6C434,275.7,432.2,276,430.8,277.1L430.8,277.1z"/>
				</g>
			</g>
			<g>
				<g>
					<path class="st2" d="M412.7,292.5c4.2,0,4.2-6.5,0-6.5S408.5,292.5,412.7,292.5L412.7,292.5z"/>
				</g>
			</g>
			<g>
				<g>
					<path class="st2" d="M393.1,287.7c-0.2,0.3-0.2,0.3,0,0.2c-1.8,0.2-3.2,1.3-3.2,3.2c0,1.6,1.5,3.4,3.2,3.2
						c2.5-0.2,4.3-1.2,5.6-3.4C400.9,287.3,395.3,284.1,393.1,287.7L393.1,287.7z"/>
				</g>
			</g>
		</g>
		<g>
			<path class="st4" d="M277.9,325.8c-12.1,0.4-21.7-21.7-19.8-25.2c3.6-6.7,36.9-8.2,38.8,2C298.3,310.2,287.7,325.4,277.9,325.8z"
				/>
		</g>
		<g>
			<g>
				<g>
					<path class="st4" d="M276,316.3c-0.3,9.9-4.6,20.6-12.9,26.3c-9,6.1-24.5,2.4-28.2-8c-0.7-2-3.8-1.1-3.1,0.9
						c4.3,12.2,18.4,15.2,29.7,11.5c11.7-3.9,17.5-19.4,17.8-30.6C279.3,314.2,276.1,314.2,276,316.3L276,316.3z"/>
				</g>
			</g>
			<g>
				<g>
					<path class="st4" d="M275.7,316.3c0.3,11.3,6,26.8,17.8,30.6c11.3,3.7,25.4,0.8,29.7-11.5c0.7-2-2.4-2.8-3.1-0.9
						c-3.9,11.2-18.7,13.1-28.2,8c-8.6-4.6-12.7-17.1-12.9-26.3C278.9,314.2,275.7,314.2,275.7,316.3L275.7,316.3z"/>
				</g>
			</g>
		</g>
		<g>
			<g>
				<g>
					<g>
						<path class="st5" d="M349.7,307.2c61.4,7.4,126.3,6.5,187.9,1.7c2.5-0.2,2.5-4.1,0-3.9c-61.6,4.8-126.5,5.6-187.9-1.7
							C347.2,303,347.2,307,349.7,307.2L349.7,307.2z"/>
					</g>
				</g>
				<g>
					<g>
						<path class="st5" d="M338.3,318.7c34.8,10.8,70.7,17.8,106.5,24.3c24.2,4.4,49.5,10.3,74.2,11.1c2.5,0.1,2.5-3.8,0-3.9
							c-24.3-0.8-49.3-6.7-73.2-11c-35.8-6.4-71.8-13.5-106.5-24.3C337,314.2,336,317.9,338.3,318.7L338.3,318.7z"/>
					</g>
				</g>
				<g>
					<g>
						<path class="st5" d="M342.3,342.7c50.9,22.8,101.9,44.4,157.1,54c2.5,0.4,3.5-3.3,1-3.8c-54.9-9.6-105.6-30.9-156.2-53.6
							C342,338.4,340,341.7,342.3,342.7L342.3,342.7z"/>
					</g>
				</g>
			</g>
			<g>
				<g>
					<g>
						<path class="st5" d="M205.3,303.3c-61.4,7.4-126.3,6.5-187.9,1.7c-2.5-0.2-2.5,3.7,0,3.9c61.6,4.8,126.5,5.6,187.9-1.7
							C207.8,307,207.8,303,205.3,303.3L205.3,303.3z"/>
					</g>
				</g>
				<g>
					<g>
						<path class="st5" d="M215.6,314.9c-33,10.3-67.1,17-101,23.3c-25.6,4.8-52.6,11.2-78.7,12c-2.5,0.1-2.5,4,0,3.9
							c22.9-0.7,46.3-6.2,68.8-10.1c37.6-6.6,75.5-13.9,112-25.2C219,317.9,218,314.2,215.6,314.9L215.6,314.9z"/>
					</g>
				</g>
				<g>
					<g>
						<path class="st5" d="M210.7,339.4c-50.6,22.7-101.3,44-156.2,53.6c-2.5,0.4-1.4,4.2,1,3.8c55.2-9.6,106.3-31.1,157.1-54
							C215,341.7,213,338.4,210.7,339.4L210.7,339.4z"/>
					</g>
				</g>
			</g>
		</g>
	</g>
</g>
</svg>
